<svg width="55" height="102" viewBox="0 0 55 102" fill="none" xmlns="http://www.w3.org/2000/svg">
<path d="M54.9502 2.2522C51.7119 10.2601 45.4348 16.6663 39.1576 22.3719C32.1331 28.8283 24.7101 34.9342 17.0879 40.5898C15.0951 42.0913 13.0525 43.5427 11.01 44.9941C9.61503 45.9951 7.37318 46.9961 6.32699 48.3974C4.33423 51.1501 7.22372 55.3042 8.81793 57.4563C10.9601 60.3592 13.4511 62.9617 15.7926 65.7144C18.9312 69.4681 22.0199 73.2218 25.4076 76.7753C29.4429 81.0294 33.827 84.8832 38.211 88.737C42.6947 92.6909 47.1784 96.7949 52.26 99.948C53.0571 100.448 53.9538 101.149 52.8578 101.8C51.9112 102.4 49.6694 101.65 48.8225 101.149C40.0045 95.6938 32.0833 88.2866 24.6105 81.1295C17.7853 74.5731 11.7074 67.2159 5.62952 59.9588C3.48731 57.3562 0.697456 54.2031 0.0996323 50.7498C-0.597832 46.8459 1.64401 45.7448 4.48369 43.6928C13.0027 37.5868 21.2228 31.1806 29.144 24.3238C36.8659 17.6673 45.2853 10.3602 49.1712 0.650631C49.8686 -1.00099 55.548 0.800778 54.9502 2.2522Z" fill="#D52E1E"/>
</svg>
