<svg width="55" height="102" viewBox="0 0 55 102" fill="none" xmlns="http://www.w3.org/2000/svg">
<path d="M0.0498012 2.2522C3.28803 10.2601 9.5652 16.6663 15.8424 22.3719C22.8668 28.8283 30.2898 34.9342 37.9121 40.5898C39.9049 42.0913 41.9474 43.5427 43.99 44.9941C45.3849 45.9951 47.6268 46.9961 48.673 48.3974C50.6657 51.1501 47.7762 55.3042 46.182 57.4563C44.0398 60.3592 41.5489 62.9617 39.2074 65.7144C36.0688 69.4681 32.9801 73.2218 29.5924 76.7753C25.557 81.0294 21.173 84.8832 16.7889 88.737C12.3052 92.6909 7.82154 96.7949 2.74002 99.948C1.94292 100.448 1.04618 101.149 2.14219 101.8C3.08875 102.4 5.3306 101.65 6.17752 101.149C14.9955 95.6938 22.9166 88.2866 30.3895 81.1295C37.2147 74.5731 43.2925 67.2159 49.3704 59.9588C51.5127 57.3562 54.3025 54.2031 54.9003 50.7498C55.5978 46.8459 53.356 45.7448 50.5163 43.6928C41.9973 37.5868 33.7772 31.1806 25.856 24.3238C18.134 17.6673 9.71465 10.3602 5.82879 0.650631C5.13132 -1.00099 -0.548025 0.800778 0.0498012 2.2522Z" fill="#D52E1E"/>
</svg>
