<svg width="58" height="15" viewBox="0 0 58 15" fill="none" xmlns="http://www.w3.org/2000/svg">
<g clip-path="url(#clip0)">
<path d="M-3.12924e-07 3.50001C1.7 5.10001 3.6 5.30001 5.8 5.50001C9.8 5.90001 13.8 6.10001 17.8 6.20001C26.5 6.40001 35.2 6.20001 43.9 6.20001C44.5 6.20001 46 5.30001 44.7 5.30001C37.3 5.30001 29.9 5.30001 22.5 5.30001C18.7 5.30001 14.9 5.20001 11.1 4.90001C8.1 4.70001 4.2 4.90001 1.9 2.70001C1.5 2.40001 -0.3 3.10001 -3.12924e-07 3.50001Z" fill="#D52E1E"/>
<path d="M32.7 0.699992C35.4 5.19999 45.4 4.89999 49.8 5.29999C51.9 5.49999 53.6 5.19999 55.5 4.89999C54 5.19999 52.5 5.49999 51.1 6.09999C46.7 7.69999 43.1 11.3 39.1 13.6C38 14.2 39.7 14.2 40.2 13.9C45.6 10.7 50.1 6.69999 56.4 5.39999C56.9 5.29999 58.2 4.49999 57 4.59999C52.4 4.69999 48 3.99999 43.5 3.39999C40.5 2.99999 36.4 2.99999 34.6 0.0999922C34.3 -0.300008 32.5 0.399992 32.7 0.699992Z" fill="#D52E1E"/>
</g>
<defs>
<clipPath id="clip0">
<rect width="57.5" height="14.2" fill="white"/>
</clipPath>
</defs>
</svg>
