<svg width="120" height="116" viewBox="0 0 120 116" fill="none" xmlns="http://www.w3.org/2000/svg">
<path fill-rule="evenodd" clip-rule="evenodd" d="M54.2977 35.114C55.5786 35.2168 57.2366 36.1507 58.2568 34.8893C56.0914 32.4422 53.4604 32.1277 51.101 30.5691C51.0233 30.9246 49.6038 30.604 49.5955 31.0683C50.2499 32.335 51.284 32.2888 52.0159 33.2001C51.4753 33.5442 51.0123 33.5329 50.4329 34.0547C51.3035 35.1837 53.125 34.9424 54.2977 35.114ZM49.8203 36.4339C51.9717 37.6657 54.3948 37.6535 57.0425 37.0393C55.3846 36.1054 51.9827 35.0574 49.8203 36.4339ZM64.6953 63.3835C64.2738 61.0505 62.9097 59.6236 62.125 57.6748C61.5539 57.7323 61.0521 57.8987 60.5503 58.065C60.7333 59.7847 62.6964 63.5848 64.6953 63.3835ZM59.9322 64.7321C60.7474 66.9676 62.2196 68.3257 64.2408 68.8754C63.933 68.1532 64.274 67.0181 63.3175 66.7088C63.0319 66.7376 61.6927 63.9176 59.9322 64.7321ZM40.7113 81.5571C40.4729 80.9438 39.8851 81.93 39.7936 81.0701C39.3611 81.3454 39.1449 81.4831 39.5303 81.8498C40.0016 81.3968 40.24 82.0101 40.7113 81.5571ZM62.2503 74.5798C61.6543 76.0304 63.1043 76.6376 63.6893 77.7953C64.6319 76.8893 63.3371 75.5712 63.107 74.4936C62.7133 74.5912 62.6135 74.1957 62.2503 74.5798ZM48.039 84.2377C48.4244 84.6044 48.3939 84.3178 48.6489 84.0025C49.0343 84.3692 48.2469 84.5644 48.8098 84.9712C48.9567 84.7247 48.6406 84.4668 49.1424 84.3004C48.7266 83.647 48.2108 82.5981 47.8394 83.4467C48.3329 83.7446 48.2247 83.8134 48.039 84.2377ZM78.3229 2.68375C75.3701 0.431774 70.5212 2.60013 70.2773 6.27474C69.6674 6.50995 69.2571 7.5362 69.21 8.17825C68.3145 8.44222 69.4706 9.54251 68.5529 9.05552C68.8358 11.1707 66.5181 13.2581 67.4025 15.6024C67.2639 15.3846 67.0477 15.5222 66.8702 15.4822C66.8148 16.5885 66.6403 20.3721 66.0774 19.9652C66.3159 20.5785 65.7836 20.4583 66.4545 20.7963C65.4482 23.2731 64.6803 26.3631 64.1675 29.1378C64.0428 30.1353 63.3386 31.6546 63.6381 32.8411C64.2092 32.7836 63.5465 31.9813 64.0012 32.4569C64.1399 32.6747 63.9236 32.8124 64.1704 32.9614C63.2832 32.761 63.8377 33.6322 63.2971 33.9763C61.9552 33.3002 61.4866 31.6093 60.2999 30.2224C60.6104 28.8006 58.2427 27.7065 59.3711 26.3762C60.9153 25.6993 62.285 28.8059 63.405 27.9399C63.1583 27.791 63.8846 27.0226 63.0279 27.1088C63.1361 27.04 63.3523 26.9024 63.4604 26.8335C61.8967 24.6155 59.9754 24.4613 57.8988 25.018C57.214 23.4647 56.0884 22.6511 55.0098 21.1953C52.6421 20.1011 48.1202 19.9191 46.1713 23.3018C45.7776 23.3994 45.5309 23.2504 45.0984 23.5257C44.4691 26.8336 43.3769 30.1301 41.3974 33.2262C40.2498 37.6291 39.7093 43.9408 45.185 46.5761C46.233 47.7452 47.8549 46.7128 49.0276 46.8845C48.5175 47.5152 47.026 49.2297 47.428 48.6677C46.5159 49.8604 45.7202 50.5199 45.6177 52.2683C45.4791 52.0505 45.2711 51.7238 45.163 51.7926C45.0466 52.3258 45.2933 52.4748 45.7175 52.6638C44.7139 52.9966 44.8969 54.7163 43.9931 55.4446C43.7105 59.2969 40.7496 63.4768 39.3801 66.3377C36.8766 68.8493 32.8151 70.8225 29.4244 73.1338C28.2351 73.8908 27.9634 75.1349 27.1982 76.0809C26.3249 77.0959 24.9276 77.5262 24.3011 78.6901C23.5276 80.1005 23.9657 81.5049 23.4778 82.8865C23.2615 83.0242 22.9372 83.2307 22.7209 83.3683C23.3892 85.8503 25.2829 89.5414 28.0221 89.7871C28.3603 90.7959 28.5849 90.1939 29.1006 91.2428C29.5636 91.2541 29.9961 90.9788 30.3121 91.2367C30.1569 91.9476 31.191 91.9014 31.4683 92.337C31.0663 92.8989 30.2955 92.1654 30.1791 92.6985C30.8501 93.0366 30.8972 92.3945 31.4905 93.088C32.1697 92.9616 31.252 92.4746 31.6457 92.3771C32.1475 92.2107 32.386 92.824 31.715 92.486C31.9923 92.9216 32.4941 92.7552 32.8019 93.4774C33.2649 93.4887 33.2732 93.0244 33.836 93.4312C33.4728 93.8154 33.2649 93.4887 33.0098 93.804C33.2178 94.1307 33.0708 94.3773 33.1706 94.7728C33.8582 94.1821 34.5291 94.5202 34.2907 93.9068C33.9441 93.3624 34.0661 94.5088 33.7889 94.0732C34.2297 93.3336 35.8876 94.2675 36.018 94.9496C37.5927 94.5593 38.71 95.8374 39.9826 96.4045C39.7664 96.5421 39.905 96.7599 39.6194 96.7887C38.6712 96.0151 37.7064 96.1701 36.7194 95.5743C36.7499 95.8609 36.8192 95.9698 36.6723 96.2163C36.0485 95.2363 35.7241 95.4427 35.2389 94.6804C34.5596 94.8068 34.0883 95.2598 34.5819 95.5577C34.5125 95.4488 34.5513 95.2711 34.8369 95.2424C36.4172 96.5317 37.9754 97.0701 39.3644 97.104C39.1481 97.2417 39.3949 97.3907 39.5335 97.6084C39.7498 97.4708 39.966 97.3332 40.0048 97.1554C40.174 97.6598 41.3245 97.0805 41.2552 96.9716C40.9308 97.1781 39.9743 96.8688 40.2682 96.3757C42.1119 96.8854 43.9861 97.6816 45.2115 98.8908C45.0729 98.673 44.865 98.3463 44.9731 98.2775C45.1505 98.3176 46.046 98.0536 46.3926 98.5981C46.4536 99.1713 46.0682 98.8046 46.0599 99.2689C46.8556 98.6094 47.7179 100.203 47.6347 98.8786C47.8426 99.2053 47.9812 99.4231 48.0117 99.7097C48.4442 99.4344 48.3444 99.0389 48.4054 99.6121C48.7298 99.4057 48.5912 99.1879 48.8767 99.1591C51.1668 100.609 53.4291 99.6278 54.7932 101.055C57.2551 100.865 59.523 101.564 62.3786 101.276C62.9581 100.754 63.3823 100.943 63.8841 100.777C63.9534 100.886 63.9146 101.063 63.9839 101.172C65.2038 100.702 66.9254 100.065 67.8985 99.4457C73.8675 96.4114 69.8141 91.9527 71.7269 86.6037C70.934 85.1193 71.1363 83.7663 71.1612 82.3733C70.0134 80.8087 69.7527 79.4445 69.6695 78.1203C70.2018 78.2405 70.1796 77.4895 70.9587 77.7587C70.7729 78.183 71.1112 79.1918 71.76 78.7789C71.3441 78.1255 71.3524 77.6612 70.8284 77.0766C70.1491 77.2029 69.9246 77.8049 69.5697 77.7248C69.3867 76.0051 68.8487 74.2052 69.198 72.6058C71.1414 67.5434 72.7298 62.4009 73.6473 56.9203C74.9809 58.0607 76.4226 59.1322 78.0972 59.1374C79.4613 60.5644 83.4064 59.1243 84.7344 58.5851C85.8628 57.2548 87.4014 54.8983 88.3994 52.8859C89.3587 51.0512 90.5563 49.8298 89.6164 48.5919C89.1451 49.0449 88.8679 48.6093 88.4742 48.7069C88.7126 49.3202 87.6231 50.4727 87.2294 50.5703C87.4845 50.2549 87.454 49.9683 87.8864 49.693C87.4318 49.2174 87.4623 49.504 88.0029 49.1599C87.4096 48.4664 87.9502 48.1223 88.2523 47.1649L87.8587 47.2625C87.9363 46.907 88.2523 47.1649 88.3993 46.9184C88.585 46.4941 88.7569 44.8545 89.1366 43.5417C89.3612 42.9397 89.802 42.2001 89.8796 41.8446C90.0348 41.1338 89.7188 40.8759 89.9433 40.2739C90.4229 39.3566 89.8352 40.3427 89.8435 39.8784C90.2011 37.8146 90.3895 35.2464 89.0032 33.0685C89.1114 32.9996 89.3276 32.862 89.4357 32.7932C88.8063 30.1335 86.3803 26.3221 83.8241 27.7961C80.9075 27.5104 76.1418 31.0029 72.2576 33.0162C73.5246 31.9037 72.801 30.5282 73.6049 29.4043C74.115 28.7736 74.3396 28.1716 74.4643 27.1741C75.9975 29.1055 79.0499 25.7855 81.2124 24.409C81.8833 24.747 81.875 25.2114 82.5072 25.7271C81.936 25.7846 81.8806 26.891 82.5128 27.4067C82.5211 26.9424 82.1274 27.04 82.2743 26.7934C82.8759 27.0225 83.0312 26.3117 83.4859 26.7873C83.5025 25.8587 84.2899 25.6635 84.3453 24.5571C81.6947 21.3477 78.1793 24.6564 75.1907 26.4058C76.0584 23.7112 77.0591 19.5549 77.9185 17.3247C79.0247 15.2434 79.7066 12.9732 79.6317 11.1846C80.0559 11.3737 80.297 9.84304 79.579 10.1471C80.979 7.57276 80.211 4.69528 78.3229 2.68375ZM65.1908 37.6674C65.9393 37.65 67.0289 36.4974 67.9078 37.1621C68.0603 38.5952 66.6381 40.4186 66.3581 42.1269C65.3157 42.6375 64.6919 41.6574 63.6965 41.5258C63.7825 40.7061 65.1105 40.1668 64.2399 39.0378C65.0966 38.9515 65.3211 38.3496 65.1908 37.6674ZM62.8868 35.0025C63.3332 35.9425 61.8805 37.4793 62.4267 38.8148C61.6393 39.0099 61.5451 40.294 61.6366 41.1539C61.0655 41.2114 60.4638 40.9822 60.3779 41.802C58.6756 39.3662 60.2086 35.3301 62.8868 35.0025ZM65.3296 43.8527C64.7585 43.9102 63.1615 43.5496 62.3519 42.9938C63.1476 42.3343 64.3038 43.4346 65.3296 43.8527ZM46.5518 45.8591C42.102 43.642 42.9807 38.3391 42.9612 35.4442C44.3529 33.3343 45.0348 31.064 46.1798 28.805C46.5264 29.3495 46.8729 29.894 47.2583 30.2608C47.2971 30.083 47.1585 29.8652 47.4829 29.6588C47.4053 30.0142 47.86 30.4899 48.1372 30.9255C48.5697 30.6502 47.8683 30.0255 47.6991 29.5211C47.9154 29.3835 47.9847 29.4924 48.2009 29.3547C47.5466 28.0881 48.4199 27.0731 47.5881 25.7664C48.1841 24.3159 48.8966 22.3322 50.8345 21.5577C53.5044 21.6945 56.7483 25.5974 55.7725 28.3607C56.1967 28.5498 56.6514 29.0254 56.7983 28.7789C58.1541 30.6702 58.5534 32.2522 60.264 34.2237C57.2754 35.973 56.8929 39.4298 57.977 42.5652C57.5223 42.0895 56.7876 43.3222 56.4106 42.4911C56.3024 42.5599 56.4411 42.7777 56.5104 42.8866C53.6243 42.8875 50.0923 47.1249 46.5518 45.8591ZM26.3529 85.494C25.4879 86.0445 25.5904 84.2961 24.8807 84.1358C24.2845 79.6188 28.8784 77.7658 32.538 76.3545C34.0573 77.0706 35.632 76.6803 37.2678 76.8632C37.484 76.7256 36.3889 76.1985 37.2151 75.8257C37.3842 76.3301 37.3842 76.3301 37.7696 76.6968C37.9859 76.5592 37.9859 76.5592 38.0247 76.3815C38.349 76.175 38.155 77.0636 38.618 77.0749C41.0023 77.2404 43.2702 77.9391 45.5381 78.6378C45.7543 78.5002 45.9706 78.3625 46.0787 78.2937C46.5251 79.2337 47.282 78.7519 47.9141 79.2677C48.061 79.0211 48.0998 78.8434 47.9612 78.6256C48.4935 78.7458 48.9233 80.6145 50.2596 79.6109C51.2688 80.9577 51.7484 80.0404 52.3723 81.0204C51.5544 80.929 51.4379 81.4621 50.7282 81.3018C50.4509 80.8662 51.0831 81.382 51.2688 80.9577C49.8881 80.4594 48.4298 80.3165 47.0879 79.6405C47.0491 79.8182 46.941 79.8871 46.9715 80.1737C46.5473 79.9846 46.3172 78.907 45.4522 79.4576C45.2913 78.4888 44.7424 79.2973 44.2572 78.535C43.7859 78.988 43.7471 79.1657 43.1067 79.1143C42.9375 78.6099 43.6778 79.0568 43.578 78.6613C42.7601 78.5699 41.9339 78.9427 41.2325 78.3181C40.4673 79.2642 38.155 77.0636 37.814 78.1987C37.0821 77.2875 35.1746 78.3486 34.1266 77.1795C30.3533 76.98 23.6579 80.7827 26.3529 85.494ZM34.3541 80.4011C35.6515 79.5752 37.4647 79.7982 38.8759 80.5831C39.996 79.7172 41.6456 81.1154 42.7186 80.8915C43.2731 81.7627 44.9171 81.4813 46.0511 81.8306C46.2895 82.4439 45.9264 82.8281 45.2471 82.9545C44.3655 84.4337 43.7307 86.0619 41.4296 87.2206C39.9712 87.0777 38.4741 87.1126 36.9382 87.3251C35.1721 86.4601 32.2221 82.0641 33.4198 80.8428C33.7524 80.172 34.5149 81.3698 35.1636 80.9569C35.1026 80.3836 34.6313 80.8367 34.3541 80.4011ZM65.0844 97.4115C63.8341 97.5953 63.2935 97.9394 61.9267 98.6564C59.473 98.382 57.1275 98.0388 54.6351 97.9421C54.5658 97.8332 54.4271 97.6154 54.3578 97.5065C51.2555 97.645 48.5329 96.4707 45.6245 95.7206C45.9184 95.2275 44.083 94.2536 43.0018 94.9418C42.7938 94.6151 41.7763 93.7326 40.9501 94.1055C40.3568 93.412 39.331 92.9938 38.3745 92.6846C36.0761 91.6993 33.384 90.8116 31.0939 89.362C30.886 89.0353 30.7862 88.6398 31.0412 88.3244C29.6771 86.8974 26.6385 85.4652 27.1347 83.6192C27.8832 83.6018 27.7917 82.7419 27.9775 82.3177C29.1973 81.8472 30.5336 80.8436 31.6759 80.7286C30.3286 84.3405 33.1871 87.8766 36.4642 89.9221C39.805 90.3969 43.8334 90.281 45.9514 87.4027C45.968 86.474 46.7332 85.5279 47.5594 85.155C46.6334 85.1324 47.6148 84.0486 47.7312 83.5155C48.05 81.6294 50.4233 84.4032 51.5739 83.8239C51.8123 84.4372 52.3141 84.2708 52.1284 84.695C53.8113 84.2359 55.9461 86.3964 57.9672 86.9461C58.1447 86.9862 58.3221 87.0263 58.469 86.7797C60.7813 88.9803 64.2913 89.9595 66.0991 94.4704C65.5113 95.4566 65.711 96.2476 65.0844 97.4115ZM69.6505 93.128C69.6256 94.521 68.8217 95.6448 67.3772 96.7172C67.8652 95.3355 68.1146 93.3405 66.9058 91.2027C67.122 91.065 67.3688 91.214 67.5157 90.9675C66.3512 90.3315 65.1341 88.658 64.3328 87.6378C65.9908 88.5717 67.1081 89.8497 68.7495 91.7123C68.7412 92.1766 68.2699 92.6296 68.439 93.1341C68.8244 93.5008 69.1487 93.2944 69.6505 93.128ZM64.4492 87.1047C64.6572 87.4314 63.9779 87.5577 63.7617 87.6953C63.5232 87.082 62.9826 87.4261 62.6749 86.7039C62.9604 86.6752 63.246 86.6464 63.501 86.3311C63.6702 86.8355 63.8781 87.1622 64.4492 87.1047ZM70.7112 53.7397C70.0847 54.9035 70.4757 56.9499 70.9054 58.8186C69.7244 59.1113 70.4092 60.6646 69.7217 61.2553C70.0599 62.2641 68.9704 63.4166 69.0924 64.5631C68.4049 65.1538 68.0722 65.8246 68.3412 66.7245C66.8967 67.7969 67.0105 69.4077 67.0632 70.4453C66.1067 70.136 65.7464 74.3438 66.9108 74.9797C66.3675 77.4678 68.0393 79.6169 68.9155 82.4256C68.8074 82.4944 68.6688 82.2766 68.5995 82.1677C69.4312 83.4745 69.6282 86.4095 69.4868 88.3356C68.1838 87.4819 66.2346 84.8971 64.3133 84.7429C64.6072 84.2498 61.7238 82.1068 60.5898 81.7574C59.6333 81.4482 57.8062 80.0099 56.1788 79.3626C54.9755 78.9044 53.4257 77.9016 51.9757 77.2944C50.9499 76.8763 50.0239 76.8536 48.7818 76.5731C47.1155 76.1036 45.6738 75.032 44.0381 74.8491C43.2202 74.7576 42.5798 74.7062 41.6926 74.5058C38.7842 73.7558 35.1884 73.5963 31.9779 73.8037C33.3752 73.3733 36.1808 69.9043 38.0245 70.414C38.0328 69.9496 38.3877 70.0298 38.3572 69.7431C38.6427 69.7144 38.8202 69.7545 38.9588 69.9723C39.261 69.0148 41.8615 69.0427 41.648 67.0364C43.0231 65.8551 43.5886 64.118 44.4009 62.5298C44.8417 61.7902 45.6457 60.6664 45.3074 59.6576C46.1031 58.9981 46.4357 58.3273 46.1668 57.4274C46.4524 57.3986 46.3054 57.6452 46.4441 57.863C46.7296 57.8342 46.8849 57.1233 46.5605 57.3298C46.4219 57.112 46.5993 57.1521 46.6686 57.261C46.8543 56.8367 47.0623 57.1634 47.1399 56.808C47.2673 53.6665 49.1692 50.9258 50.8935 48.145C53.0089 47.4106 54.5392 45.5184 56.832 44.8241C59.1248 44.1298 61.1377 45.1438 63.059 45.298C64.2234 45.934 66.0283 46.6213 66.6439 48.0657C66.8906 48.2147 67.3148 48.4037 67.678 48.0196C69.25 49.7732 70.2121 51.7621 70.7112 53.7397ZM76.5105 32.2984C77.2674 31.8166 77.7082 31.077 78.2488 30.7329C78.4651 30.5952 80.1174 29.8495 80.8355 29.5455C81.6617 29.1726 82.7263 29.413 83.2752 28.6046C83.375 29.0001 84.3482 28.3807 84.9498 28.6098C89.5246 35.797 86.8382 42.5564 85.1944 48.8053C85.4328 49.4186 85.857 49.6077 86.065 49.9344C85.4467 50.6339 84.4736 51.2533 84.3877 52.0731C84.6649 52.5087 85.1279 52.52 85.5992 52.067C84.5319 53.9705 83.5949 56.5561 81.51 57.5772C79.1008 58.8046 76.6028 57.0283 74.5983 55.5499C74.6066 55.0856 74.4374 54.5812 74.2683 54.0768C73.8829 53.71 73.4199 53.6987 72.8405 54.2205C73.3921 51.2681 70.8331 48.9186 68.6594 46.9358C68.4986 45.9671 69.0475 45.1586 68.3543 44.0697C69.2664 42.877 69.5381 41.633 69.4549 40.3088C69.6018 40.0623 69.8486 40.2112 69.9872 40.429C69.9428 38.9271 70.4529 38.2964 71.5425 37.1438C71.2957 36.9949 71.1183 36.9548 70.902 37.0924C72.2078 35.8022 74.6336 33.6461 76.5105 32.2984ZM77.7075 7.20688C77.6992 7.67121 77.1503 8.47966 77.1725 9.23061C77.1254 9.87266 77.3638 10.486 77.2474 11.0191C77.0922 11.73 76.3963 12.785 76.1329 13.5647C76.0165 14.0978 76.2162 14.8889 76.0997 15.422C75.6423 17.0903 74.7607 18.5696 74.0871 20.3755C73.7156 21.224 73.9069 22.4794 73.4661 23.219C73.4661 23.219 73.0031 23.2077 72.9643 23.3854C72.5152 24.5894 72.5596 26.0913 72.0024 27.3641C71.8555 27.6106 71.5699 27.6393 71.5311 27.8171C71.0432 29.1988 70.9489 30.4829 70.4305 31.5779C69.9814 32.7819 68.9363 35.4363 68.6119 35.6428C68.1406 36.0958 67.1148 35.6777 66.8209 36.1707C65.7036 34.8927 66.222 33.7977 66.4327 31.9804C66.6987 29.0568 67.791 25.7602 68.265 23.1633C68.3121 22.5212 68.1042 22.1945 68.1125 21.7302C68.2677 21.0193 68.9553 20.4287 69.0412 19.6089C69.2823 18.0782 68.8831 16.4962 69.1935 15.0744C69.5872 14.9769 69.3793 14.6502 69.8811 14.4838C70.0861 10.9869 72.4981 7.61547 73.3824 3.99226C73.9452 4.3991 74.4719 2.8397 75.3979 2.86234C76.5236 3.67602 77.6631 5.70498 77.7075 7.20688ZM77.3678 50.1147C76.6746 49.0257 74.1793 45.1055 72.2941 46.9175C74.1822 48.929 78.1026 54.8495 80.1487 54.0062C79.6857 53.9949 79.8492 52.8197 79.4333 52.1663C79.0479 51.7995 77.9223 50.9859 77.3678 50.1147ZM39.1754 81.7697C39.1837 81.3053 38.8593 81.5118 38.9369 81.1564C38.7207 81.294 38.3963 81.5005 38.1801 81.6381C38.2577 81.2827 38.0109 81.1337 37.7254 81.1625C37.8945 81.6669 38.1801 81.6381 38.388 81.9648C38.7207 81.294 38.8898 81.7984 39.1754 81.7697ZM60.6449 68.716C60.5812 70.2867 63.0487 71.7764 64.1521 71.8391C64.2075 70.7328 62.4193 69.1167 61.6873 68.2055C61.2548 68.4808 60.9304 68.6872 60.6449 68.716ZM41.2964 82.7149C41.1272 82.2105 41.7982 82.5485 42.0532 82.2331C41.8453 81.9064 42.0615 81.7688 41.8148 81.6198C41.2436 81.6773 41.3823 81.8951 40.9886 81.9927C40.9886 81.9927 40.9027 82.8125 41.2964 82.7149ZM46.3289 100.169C46.1902 99.951 45.9823 99.6243 46.0128 99.9109C46.2208 100.238 46.5756 100.318 46.9305 100.398C46.7919 100.18 46.9388 99.9336 46.6921 99.7846C46.5839 99.8534 46.437 100.1 46.3289 100.169ZM51.9764 101.165C51.5993 100.333 50.9589 100.282 50.4654 99.9841C50.5957 100.666 51.4524 100.58 51.2666 101.004C50.9118 100.924 49.9165 100.793 49.9081 101.257C50.6955 101.062 51.2195 101.646 51.5356 101.904C51.6825 101.658 51.189 101.36 51.5134 101.153C52.115 101.382 52.5697 101.858 53.188 101.158C53.4264 101.772 53.8201 101.674 54.175 101.754C53.7674 100.637 52.0235 100.522 51.9764 101.165ZM65.0249 52.9216C65.4269 52.3597 64.8641 51.9529 64.2153 52.3658C65.0581 51.0643 62.1886 50.1365 61.4539 51.3692C63.5195 53.4208 64.5731 56.2696 66.6635 56.9282C66.633 56.6415 66.5637 56.5326 66.7106 56.2861C67.0267 56.544 67.304 56.9796 67.7365 56.7043C66.9657 55.9707 66.7133 54.1421 65.0249 52.9216ZM60.6084 54.8147C61.6315 57.3768 63.0955 59.1993 65.1 60.6777C66.1451 58.0232 63.1453 56.4133 61.8976 54.4532C61.3653 54.3329 61.0409 54.5394 60.6084 54.8147ZM81.7897 43.9337C82.4689 43.8074 83.2175 43.79 83.8579 43.8414C84.2987 43.1018 83.1259 42.9301 82.6102 41.8812C78.6595 41.6417 74.6809 38.9715 70.9215 39.9873C74.3372 42.2506 78.7593 42.0372 81.7897 43.9337ZM80.0292 44.7483C77.9941 42.9833 74.8918 43.1218 72.3466 41.9876C71.8753 42.4406 71.5592 42.1827 71.0879 42.6357C72.8762 44.2517 75.5073 44.5662 77.1735 45.0358C78.1911 45.9183 80.434 48.0099 81.4821 49.1791C82.4552 48.5596 81.6539 47.5395 81.9478 47.0464C81.0689 46.3817 80.9081 45.413 80.0292 44.7483Z" fill="#D52E1E"/>
</svg>
