<svg width="16" height="16" viewBox="0 0 16 16" fill="none" xmlns="http://www.w3.org/2000/svg">
<path fill-rule="evenodd" clip-rule="evenodd" d="M1.98577 9.33337C2.35134 9.33337 2.6477 9.63185 2.6477 10V12.6667C2.6477 12.8435 2.71743 13.0131 2.84157 13.1381C2.9657 13.2631 3.13407 13.3334 3.30962 13.3334H12.5765C12.7521 13.3334 12.9204 13.2631 13.0446 13.1381C13.1687 13.0131 13.2384 12.8435 13.2384 12.6667V10C13.2384 9.63185 13.5348 9.33337 13.9004 9.33337C14.2659 9.33337 14.5623 9.63185 14.5623 10V12.6667C14.5623 13.1971 14.3531 13.7058 13.9807 14.0809C13.6083 14.456 13.1032 14.6667 12.5765 14.6667H3.30962C2.78296 14.6667 2.27787 14.456 1.90547 14.0809C1.53307 13.7058 1.32385 13.1971 1.32385 12.6667V10C1.32385 9.63185 1.6202 9.33337 1.98577 9.33337Z" fill="#EDC863"/>
<path fill-rule="evenodd" clip-rule="evenodd" d="M4.1654 6.19526C4.4239 5.93491 4.843 5.93491 5.1015 6.19526L7.94306 9.05719L10.7846 6.19526C11.0431 5.93491 11.4622 5.93491 11.7207 6.19526C11.9792 6.45561 11.9792 6.87772 11.7207 7.13807L8.41111 10.4714C8.15261 10.7318 7.7335 10.7318 7.47501 10.4714L4.1654 7.13807C3.9069 6.87772 3.9069 6.45561 4.1654 6.19526Z" fill="#EDC863"/>
<path fill-rule="evenodd" clip-rule="evenodd" d="M7.94305 1.33337C8.30862 1.33337 8.60497 1.63185 8.60497 2.00004V10C8.60497 10.3682 8.30862 10.6667 7.94305 10.6667C7.57748 10.6667 7.28113 10.3682 7.28113 10V2.00004C7.28113 1.63185 7.57748 1.33337 7.94305 1.33337Z" fill="#EDC863"/>
</svg>
