<svg width="57" height="57" viewBox="0 0 57 57" fill="none" xmlns="http://www.w3.org/2000/svg">
<path d="M11.64 15L7.04 18.96V22L11.64 18.16V42.8H14.04V15H11.64ZM18.4128 43H31.8928V40.76H20.8128C20.8128 32.64 31.6128 28.92 31.6128 20.92C31.6128 17.4 29.0928 14.6 25.0528 14.6C21.2928 14.6 18.8128 17.4 18.5728 21.6H20.9728C21.0528 18.44 22.6128 16.84 25.0528 16.84C27.6928 16.84 29.2128 18.6 29.2128 20.92C29.2128 27.76 18.4128 31.48 18.4128 41V43ZM49.1056 29.52H43.2256V23.52H40.9856V29.52H35.1056V31.76H40.9856V37.76H43.2256V31.76H49.1056V29.52Z" fill="#8E4217"/>
<rect x="0.5" y="0.5" width="56" height="56" rx="9.5" stroke="#8E4217"/>
</svg>
