<svg width="66" height="30" viewBox="0 0 66 30" fill="none" xmlns="http://www.w3.org/2000/svg">
<path d="M64.5883 10.5452C63.9737 10.0106 63.1846 9.6264 62.3956 9.66817C62.0965 9.70993 61.7975 9.76005 61.4902 9.80181C61.1746 9.75169 60.8507 9.69323 60.535 9.65146C60.2776 9.36747 59.9619 9.13359 59.6712 8.89971C59.5633 8.81618 59.4636 8.741 59.3473 8.67418C58.7825 8.35678 58.1928 8.08113 57.5782 7.89737C57.0549 7.74702 56.5233 7.64679 56.0001 7.54655C55.917 7.29597 55.8173 7.04538 55.6927 6.81151C55.2941 5.79246 54.2974 4.90706 53.4253 4.43931C52.6694 4.03837 51.897 3.72097 51.1079 3.42026C50.4268 3.16133 49.7541 2.86063 49.0564 2.64345C48.2839 2.40122 47.4949 2.20911 46.7141 2.00864C43.1011 1.08148 39.405 0.46337 35.7089 0.162669C28.7569 -0.413675 21.7551 0.597015 14.9775 2.31769C12.3446 2.98592 9.75318 3.78779 7.18668 4.68154C6.87106 4.75671 6.56374 4.84024 6.25642 4.94048C5.15175 5.27459 4.12183 5.75905 3.07529 6.27693C2.27793 6.66951 1.47226 7.96419 1.28954 8.89136C1.0902 9.86863 1.14003 10.8125 1.48888 11.7397C1.78789 12.5415 2.32776 13.2432 2.97562 13.736C2.91748 13.9114 2.86764 14.0785 2.82612 14.2455C2.63508 15.1058 2.69322 15.9662 2.9424 16.7263C2.07028 17.3528 1.29784 18.1379 0.741351 19.1319C-0.255349 20.9027 -0.21382 23.1162 0.666598 24.9288C1.57193 26.7914 3.43244 27.6935 5.23481 27.7604C6.082 27.7938 6.94581 27.6017 7.76809 27.3761C7.7847 27.3761 7.793 27.3678 7.80961 27.3678C8.37441 28.8796 9.66182 30.0407 11.1735 29.9989C12.9592 29.9571 14.7035 29.4476 16.4228 28.9297C17.4112 28.629 18.3996 28.3868 19.3879 28.1613C21.6388 27.9274 23.898 27.7687 26.1489 27.7102C30.443 27.6017 34.7371 27.4429 39.0312 27.4513C40.2605 27.4513 41.4815 27.468 42.7107 27.5098C43.4167 27.5348 44.1227 27.5348 44.8287 27.61C45.6095 27.7436 46.3902 27.8856 47.171 28.0026C47.9019 28.1195 48.6411 28.2532 49.3803 28.3033C50.5681 28.3868 51.5564 27.9441 52.4618 27.0754C53.1262 26.4323 53.5166 25.171 53.5166 24.2104C53.5166 24.0266 53.5 23.8345 53.4751 23.6424C54.8788 23.6758 56.3157 23.6758 57.5366 22.8071C58.6164 22.0387 59.3141 20.7774 59.3141 19.3073C59.3141 19.2405 59.3141 19.182 59.3058 19.1152C59.7128 19.0567 60.045 18.9648 60.4603 18.7727C61.0251 18.5973 61.5816 18.447 62.1547 18.305C63.5085 17.9792 64.7793 17.1523 65.4936 15.7824C66.4488 14.0534 66.0003 11.7731 64.5883 10.5452Z" fill="#FFF1CB"/>
</svg>
