<svg width="23" height="23" viewBox="0 0 23 23" fill="none" xmlns="http://www.w3.org/2000/svg">
<path fill-rule="evenodd" clip-rule="evenodd" d="M0.467346 7.73938C0.467346 3.93528 3.55118 0.85144 7.35528 0.85144H15.3912C19.1953 0.85144 22.2791 3.93527 22.2791 7.73937V15.7753C22.2791 19.5794 19.1953 22.6632 15.3912 22.6632H7.35529C3.55119 22.6632 0.467346 19.5794 0.467346 15.7753V7.73938ZM19.5526 4.94093C19.5526 5.69382 18.9423 6.30416 18.1894 6.30416C17.4365 6.30416 16.8262 5.69382 16.8262 4.94093C16.8262 4.18803 17.4365 3.57769 18.1894 3.57769C18.9423 3.57769 19.5526 4.18803 19.5526 4.94093ZM15.0085 11.7573C15.0085 13.765 13.381 15.3926 11.3732 15.3926C9.36552 15.3926 7.73794 13.765 7.73794 11.7573C7.73794 9.74955 9.36552 8.12197 11.3732 8.12197C13.381 8.12197 15.0085 9.74955 15.0085 11.7573ZM16.8262 11.7573C16.8262 14.7688 14.3848 17.2102 11.3732 17.2102C8.36166 17.2102 5.92029 14.7688 5.92029 11.7573C5.92029 8.74569 8.36166 6.30432 11.3732 6.30432C14.3848 6.30432 16.8262 8.74569 16.8262 11.7573Z" fill="white"/>
</svg>
