<svg width="101" height="100" viewBox="0 0 101 100" fill="none" xmlns="http://www.w3.org/2000/svg">
<ellipse cx="50.1385" cy="50" rx="50.1385" ry="50" fill="#FFF1CB"/>
<g clip-path="url(#clip0)">
<path fill-rule="evenodd" clip-rule="evenodd" d="M85.9614 28.2307C85.2709 27.1381 83.4953 26.6415 81.9169 27.0388C81.7196 27.2375 81.9169 27.8334 81.621 27.9327C81.7196 27.3368 81.1278 28.4293 81.3251 28.2307C80.7332 28.9259 79.4508 29.1245 79.5494 29.7204C79.4508 29.7204 79.4508 29.6211 79.2535 29.6211C79.0562 29.7204 79.3521 29.8198 79.1548 29.9191C78.6616 29.7204 78.6616 30.9123 77.7738 30.6143C77.4779 31.3096 77.2806 30.9123 76.4914 31.3096C76.1955 30.217 76.4914 29.4225 76.4914 28.4293C76.3928 28.2307 76.2941 28.5286 76.1955 28.33C76.59 27.9327 76.1955 27.4361 76.6887 27.1381C76.886 27.1381 76.886 27.4361 77.1819 27.3368C77.3792 27.2375 77.0833 27.1381 77.2806 27.0388C78.1684 27.5354 79.4508 24.9531 78.3657 24.2579C78.563 23.364 76.4914 21.8742 75.3076 22.0728C74.4198 20.0864 71.855 18.5966 69.6848 19.0932C69.7835 18.7953 68.8957 18.696 68.797 18.9939C66.5282 17.3055 62.681 18.4973 60.3135 18.7953C59.6229 18.8946 58.4392 18.696 58.2419 19.1926C57.3541 18.9939 55.5784 19.7885 53.9015 19.8878C53.9015 19.7885 54.0988 19.6892 54.0988 19.5898C53.3096 19.4905 50.7448 19.6892 51.1394 20.1858C50.5475 19.7885 49.4624 20.881 49.3637 20.3844C49.0678 20.9803 48.4759 20.6824 47.8841 20.7817C46.8976 21.0796 45.6152 21.8742 45.122 21.6756C45.2206 21.9735 45.0233 21.6756 44.7274 21.9735C44.826 22.0728 44.6287 22.1721 44.6287 22.4701C44.6287 22.6687 44.9247 22.5694 44.9247 22.7681C44.3328 22.9667 45.3193 23.8606 45.122 24.2579C45.9111 24.5558 45.5165 24.9531 46.3057 25.2511C46.1084 25.2511 46.3057 25.7477 46.2071 25.9463C46.503 25.847 46.8976 26.0456 46.7989 26.2443C47.2922 26.0456 47.0949 26.1449 47.5881 26.6415C47.8841 27.0388 48.2786 28.5286 47.6868 28.9259C47.8841 28.33 46.0098 29.2239 46.2071 29.2239C46.1084 29.2239 45.5165 28.8266 45.5165 29.2239C45.5165 29.0252 45.4179 29.0252 45.3193 28.9259C44.5301 28.6279 42.4585 28.8266 41.768 27.5354C40.9788 27.4361 40.4856 26.9395 39.7951 26.6415C39.4005 26.8402 39.4005 26.5422 39.4991 26.5422C38.9073 26.2443 37.8222 26.1449 37.5262 26.2443C36.9343 26.5422 37.1316 26.9395 37.033 27.2375C36.7371 28.4293 36.5398 30.217 37.3289 30.9123C37.8222 33.5939 39.0059 35.2824 40.1897 37.2687C41.2748 39.1558 42.0639 41.0429 43.0504 43.0293C43.8396 44.5191 45.2206 45.413 46.1084 46.9028C46.7989 47.0021 47.0949 47.2007 47.5881 47.0021C48.18 53.8551 51.534 59.6157 57.65 61.6021C57.65 61.2048 57.8473 61.6021 58.1432 61.5028C58.9324 62.5953 58.1432 64.979 57.8473 65.9721C57.1568 66.3694 56.5649 66.866 55.973 67.0647C55.973 66.866 56.269 66.9653 56.1703 66.6674C55.8744 66.4687 55.4798 66.7667 55.3812 67.0647C54.8879 66.9653 54.6906 67.164 54.4933 67.4619C54.296 67.2633 53.7042 67.3626 53.6055 67.6606C54.1974 68.8524 55.5784 69.647 56.9595 69.647C56.4663 69.647 57.0581 69.8456 56.9595 70.0443C56.5649 69.7463 56.6635 70.3422 56.3676 70.3422C56.269 70.0443 56.4663 70.0443 56.4663 69.8456C55.2825 69.8456 54.1974 70.0443 53.4082 70.2429C53.3096 70.3422 53.4082 70.7395 53.1123 70.7395C51.8299 70.6402 50.3502 71.0375 48.9692 71.3354C48.9692 71.832 49.2651 72.13 49.561 72.4279C49.0678 72.4279 48.9692 72.13 48.3773 72.2293C48.3773 72.3286 48.3773 72.4279 48.2786 72.4279C50.0543 75.7055 54.8879 75.8048 58.3405 77.3939C58.5378 78.5858 58.2419 79.6783 58.0446 81.466C57.8473 81.466 57.8473 81.5653 57.7487 81.6647C57.9459 81.764 58.1432 81.3667 58.1432 81.6647C58.0446 82.5585 58.2419 84.247 57.9459 84.6443C55.8744 84.1477 53.5069 83.2538 51.4353 82.9558C50.9421 82.4592 50.3502 82.1613 49.7583 81.6647C49.9556 81.1681 49.6597 81.2674 49.4624 81.0687C50.2516 80.3735 49.561 78.7844 49.561 77.4932C49.561 76.9966 49.7583 76.6987 49.561 76.4007C49.7583 76.798 49.4624 75.8048 49.6597 75.6062C49.3637 75.4075 49.561 75.6062 49.2651 75.3082C49.3637 75.2089 49.6597 75.2089 49.6597 74.9109C49.3637 74.8116 49.7583 74.7123 49.6597 74.4143C49.0678 74.2157 48.7719 73.7191 48.18 73.5205C47.9827 76.798 48.4759 78.6851 48.2786 81.1681C48.8705 82.1613 50.0543 83.0551 51.1394 83.1545C51.1394 83.2538 51.1394 83.3531 51.1394 83.4524C53.6055 84.247 56.6636 84.8429 59.1297 85.9354C58.5378 85.9354 58.7351 86.3327 58.4392 86.5313C58.4392 86.432 58.6365 86.3327 58.3405 86.3327C58.3405 86.432 58.3405 86.432 58.3405 86.5313C58.3405 86.6307 58.3405 86.73 58.4392 86.73C59.1297 86.2334 60.8067 86.5313 61.2013 85.8361C62.1877 85.6375 63.3715 86.1341 64.1607 85.4388C65.2458 85.5381 67.2187 84.8429 68.2051 84.247C69.0929 84.5449 69.3889 83.8497 70.3753 83.7504C70.2767 83.4524 70.474 83.4524 70.474 83.2538C70.2767 83.1545 70.1781 83.0551 70.0794 82.7572C70.6713 82.3599 71.4605 82.1613 72.0523 81.764C71.9537 81.466 72.151 81.466 72.151 81.2674C71.855 81.1681 71.5591 80.9694 71.2632 80.7708C71.3618 81.2674 70.8686 80.8701 71.0659 80.8701C69.8821 81.0687 68.4024 81.8633 66.8241 82.4592C64.4566 83.4524 61.9904 84.0483 60.0175 85.2402C59.6229 85.0415 59.2283 84.8429 58.8338 84.5449C59.2283 83.4524 58.7351 82.2606 59.4256 81.1681C58.9324 80.9694 59.0311 80.2742 59.4256 79.8769C59.327 79.8769 59.2283 79.7776 59.1297 79.6783C59.9189 79.1817 59.327 77.3939 59.7216 76.6987C60.3135 76.9966 60.708 76.3014 61.2999 76.5C61.2013 76.0034 61.9904 76.1028 62.0891 76.3014C64.3579 75.7055 66.5282 75.0102 68.6984 74.613C68.8957 74.1164 68.8957 74.4143 68.8957 73.8184C67.2187 72.8252 64.4566 73.5204 62.385 74.1164C59.9189 74.8116 58.5378 75.9041 57.2554 75.5068C55.2825 74.8116 52.915 74.2157 51.1394 73.3218C52.2245 73.6198 53.2109 73.7191 54.296 74.017C54.296 73.8184 54.296 73.7191 54.4933 73.7191C54.296 73.9177 54.4933 73.9177 54.592 74.1164C55.1839 74.017 55.3812 74.1164 55.6771 74.5136C55.8744 74.4143 55.6771 74.017 55.973 74.1164C56.269 74.4143 55.7757 74.2157 55.8744 74.5136C56.3676 74.2157 56.4663 74.7123 56.5649 74.1164C56.6636 74.2157 56.6635 74.5136 56.8608 74.613C56.9595 74.4143 56.9595 74.1164 57.1568 74.017C56.3676 74.1164 56.0717 73.5205 55.6771 74.017C55.5784 73.7191 55.3812 73.7191 55.6771 73.5205C55.3812 73.6198 54.8879 73.3218 54.6906 73.4211C54.7893 73.4211 54.7893 73.2225 54.6906 73.2225C54.6906 73.4211 53.7042 72.9245 53.7042 73.7191C53.7042 73.5204 53.5069 73.3218 53.6055 73.0238C52.2245 72.8252 51.238 72.7259 50.1529 72.13C50.3502 72.13 50.3502 72.0307 50.4489 71.9313C50.8434 72.2293 51.238 71.832 51.534 71.6334C52.1258 71.832 53.3096 71.7327 53.6055 71.3354C55.0852 72.9245 57.8473 73.5204 60.4121 73.1232C60.5107 73.4211 61.1026 73.2225 61.2999 73.0238C61.4972 73.5205 62.4837 72.7259 62.2864 73.1232C63.5688 73.2225 64.5552 72.7259 65.8376 72.3286C66.0349 71.9313 66.0349 71.832 66.6268 71.5341C66.7254 71.2361 66.5282 71.0375 66.8241 70.7395C66.6268 71.832 67.7119 73.1232 68.6984 72.5273C68.5997 72.6266 68.5997 72.7259 68.797 72.8252C69.4875 72.5273 69.8821 72.5272 70.7699 72.6266C70.9672 74.2157 70.9672 76.5 71.1645 78.1885C71.2632 78.983 71.4605 80.2742 72.4469 80.3735C72.4469 79.9762 72.3483 78.983 72.6442 79.3803C72.6442 79.281 72.6442 79.1817 72.7429 79.1817C72.9401 78.7844 72.3483 79.1817 72.3483 78.8837C72.6442 78.6851 71.9537 78.4864 72.3483 78.1885C72.5456 78.3871 72.5456 78.7844 72.7429 78.6851C72.5456 77.6919 72.7429 76.5994 72.4469 74.9109C72.2496 74.9109 72.2496 75.0102 72.151 74.9109C72.0523 74.2157 72.4469 73.9177 72.151 73.3218C72.151 73.4211 71.855 73.6198 71.855 73.4211C71.855 73.3218 72.2496 73.2225 72.3483 72.6266C72.2496 72.5272 72.151 72.4279 72.0523 72.3286C72.3483 72.3286 72.151 71.832 72.3483 71.6334C71.9537 71.4347 71.6577 71.3354 71.2632 71.1368C71.0659 71.1368 71.0659 71.4347 70.7699 71.3354C68.9943 70.5409 67.416 70.0443 65.5417 69.5477C65.5417 69.7463 65.6403 69.7463 65.5417 69.8456C65.2458 69.647 64.7525 69.647 64.5552 69.349C65.8376 67.8592 63.2728 66.6674 62.1877 65.7735C62.1877 64.681 61.7931 62.0987 62.681 61.6021C62.5823 62.0987 62.681 62.198 62.4837 62.6946C62.681 62.8932 63.3715 62.2973 62.9769 62.198C63.6674 61.9 63.2728 61.1055 63.4701 60.4102C65.1471 59.8143 67.12 59.417 68.3038 58.4239C69.7835 58.2252 69.6848 56.5368 70.8686 56.5368C70.8686 56.3381 70.7699 56.3381 70.6713 56.2388C71.5591 56.1395 71.4605 54.6497 72.3483 54.5504C72.5456 53.9545 72.7429 53.5572 73.1374 53.0606C73.0388 53.0606 72.9401 53.0606 72.9401 52.9613C73.532 52.4647 73.2361 51.1735 74.3212 50.8755C74.4198 51.0742 74.5185 51.1735 74.6171 51.3721C75.1104 51.1735 74.8144 51.3722 75.1104 51.4715C75.4063 51.4715 75.3076 51.1735 75.6036 51.1735C75.6036 50.5776 75.8995 49.9817 76.2941 49.4851C76.7873 48.7898 77.4779 47.9953 77.8724 47.3C77.6752 46.8034 77.7738 47.1014 77.9711 46.9028C78.1684 46.7041 79.2535 43.9232 79.6481 44.2211C79.944 43.0293 80.8318 42.7313 81.4237 41.3409C81.5224 41.3409 81.5223 41.4402 81.7196 41.4402C82.1142 40.7449 82.8047 39.9504 83.1007 39.4538C83.298 39.4538 83.3966 39.3545 83.4953 39.2551C84.5804 36.8715 87.3425 33.7926 87.5398 30.813C87.3425 29.5218 87.3425 28.7273 85.9614 28.2307ZM72.4469 76.0034C72.8415 75.6062 72.3483 76.5 72.7429 76.4007C72.6442 76.5 72.7429 76.798 72.4469 76.6987C72.4469 76.5 72.5456 76.2021 72.4469 76.0034ZM75.6036 23.7613C75.6036 23.364 75.4063 23.2647 75.6036 22.8674C76.59 22.9667 77.4779 23.4633 77.8724 24.3572C77.6752 24.9531 77.3792 25.3504 77.1819 25.847C76.1955 26.0456 75.1104 26.0456 74.5185 26.7409C74.3212 26.2443 73.828 26.8402 73.2361 27.0388C72.5456 27.2375 71.1645 26.9395 70.6713 27.3368C70.474 27.7341 70.5726 27.0388 70.2767 27.1381C70.2767 27.4361 69.1916 26.8402 68.6984 27.3368C68.6984 27.3368 68.6984 27.3368 68.5997 27.4361C68.5997 27.4361 68.5997 27.3368 68.6984 27.3368C68.797 27.0388 67.0214 26.9395 66.7254 27.0388C66.6268 27.0388 66.5282 27.3368 66.5282 27.3368C66.3309 27.3368 66.0349 27.1381 65.739 27.1381C65.2458 27.1381 64.8512 27.1381 64.3579 27.1381C64.2593 27.1381 64.2593 27.3368 64.2593 27.3368C61.8918 27.4361 58.3405 26.4429 55.8744 26.4429C55.2825 25.9463 54.296 26.5422 53.3096 25.9463C56.0717 25.847 59.6229 25.9463 62.385 25.7477C64.5552 25.847 68.4024 25.9463 71.2632 25.549C72.9401 25.549 75.1104 24.9531 75.6036 23.7613ZM63.8647 19.1926C64.062 19.1926 64.062 19.2919 64.062 19.3912C65.443 19.0932 67.416 19.5898 69.2902 19.6892C69.1916 19.9871 69.7835 19.8878 70.0794 19.8878C70.6713 19.9871 71.0659 20.1858 71.5591 20.3844C71.855 20.4837 72.6442 20.6824 72.7429 20.4837C73.0388 20.9803 74.1239 21.179 74.1239 21.9735C73.4334 21.5762 73.0388 22.3708 72.6442 22.2715C72.6442 22.0728 72.7429 22.0728 72.9401 22.0728C72.9401 21.9735 72.9401 21.9735 72.9401 21.8742C72.5456 21.7749 72.6442 22.1721 72.3483 22.2715C72.3483 22.3708 72.4469 22.3708 72.4469 22.4701C73.3347 22.5694 73.828 22.7681 74.6171 22.8674C74.4198 23.4633 74.1239 23.4633 74.0252 24.0592C73.532 23.8606 72.3483 24.4565 72.0523 24.6551C71.855 24.4565 71.5591 24.4565 71.2632 24.5558C71.3618 24.9531 71.855 24.2579 71.7564 24.7545C70.7699 24.6551 69.1916 24.7545 68.5997 25.1517C68.4024 25.0524 68.5997 24.9531 68.5997 24.8538C67.5146 25.0524 66.8241 24.8538 66.3309 25.2511C65.443 24.7545 64.1606 25.1517 63.3715 25.2511L63.4701 25.0524C63.2728 25.0524 63.2728 25.2511 63.0755 25.3504C62.9769 25.3504 62.9769 25.1517 62.9769 25.0524C62.681 25.4497 62.0891 25.0524 61.7931 25.3504C61.7931 25.2511 61.8918 25.2511 61.8918 25.1517C57.65 24.8538 51.1394 26.3436 48.6732 22.9667C53.4082 20.6824 59.327 19.7885 63.8647 19.1926ZM48.8705 20.9803C48.9692 21.179 49.857 21.0796 49.4624 20.7817C50.4489 20.881 51.1394 20.0864 52.0272 19.9871C52.1258 19.9871 52.1258 19.7885 52.1258 19.6892C52.5204 19.8878 53.1123 19.7885 53.4082 19.5898C54.0001 20.2851 51.9285 19.7885 52.0272 20.583C51.8299 20.583 51.8299 20.4837 51.8299 20.2851C51.1394 20.881 49.9556 20.4837 49.4624 21.3776C49.3637 21.2783 48.8705 21.179 48.8705 21.4769C48.6732 21.3776 48.9692 21.179 48.8705 20.9803ZM45.5165 22.9667C45.8125 22.5694 46.503 22.3708 46.503 21.8742C46.7989 22.3708 47.1935 21.7749 47.6868 21.8742C47.1935 21.5762 48.18 21.8742 47.8841 21.4769C47.9827 21.2783 48.6732 21.6756 48.5746 21.0796C48.7719 21.0796 48.5746 21.3776 48.6732 21.5762C46.7003 23.4633 50.7448 25.549 52.8164 25.9463C52.0272 25.847 50.8434 25.847 49.9556 25.549C47.9827 25.0524 46.0098 25.0524 45.5165 22.9667ZM47.5881 43.4266C46.1084 41.7381 45.4179 39.3545 44.0369 37.3681C43.8396 35.481 42.4585 34.2892 42.2612 32.7C42.2612 32.7 42.2612 32.7 42.2612 32.6007V32.5014C42.3599 32.5014 42.3599 32.6007 42.2612 32.6007C42.2612 32.6007 42.2612 32.6007 42.2612 32.7C42.3599 32.8987 42.6558 32.8987 42.7545 32.998C42.9518 32.8987 42.6558 32.5014 42.3599 32.5014C43.3463 32.2034 44.826 33.1966 45.3193 32.5014C45.4179 32.5014 45.4179 32.7 45.4179 32.7994C46.0098 32.7994 47.3908 32.7994 47.8841 32.5014C47.6868 36.8715 47.1935 39.2551 47.5881 43.4266ZM47.6868 31.6075C46.9962 32.2034 45.6152 31.1109 45.5165 32.0048C45.4179 32.0048 45.4179 31.8062 45.4179 31.6075C44.1355 31.9055 42.6558 31.5082 41.2748 31.4089C41.2748 31.1109 41.5707 30.9123 41.5707 30.6143C41.0775 30.9123 41.1761 30.9123 40.7815 31.0116C41.1761 32.7 41.6694 34.3885 42.5572 35.5803C42.5572 35.6796 42.4585 35.779 42.4585 35.8783C43.2477 36.8715 43.2477 38.6592 44.1355 39.4538C44.0369 40.149 44.826 40.447 44.6287 40.9436C45.6152 42.632 47.1935 44.1218 47.4895 46.2075C47.2922 46.2075 47.2922 46.1082 47.2922 46.0089C47.2922 46.3068 46.503 46.1082 46.3057 45.9096C44.6287 44.2211 42.8531 41.2415 42.0639 38.9572C40.7815 37.1694 39.3018 34.3885 38.5127 31.8062C38.1181 30.6143 37.4276 29.1245 38.1181 27.8334C41.6694 27.6347 43.445 31.4089 47.7854 30.1177C47.8841 30.813 47.8841 31.2102 47.6868 31.6075ZM64.7525 70.9381C64.7525 71.0375 64.6539 71.0375 64.6539 71.1368C65.0485 71.2361 65.0485 71.1368 65.5417 71.2361C63.3715 72.8252 60.1162 72.3286 57.5514 72.5273C56.6636 72.0307 55.4798 72.2293 54.6906 71.3354C54.6906 71.1368 54.7893 71.1368 54.8879 71.1368C54.7893 70.8388 54.3947 71.3354 54.3947 70.8388C54.7893 70.6402 55.0852 70.9381 55.3812 70.6402C55.5784 70.8388 55.5784 71.0375 55.7757 71.0375C56.0717 70.9381 55.4798 70.9381 55.5784 70.6402C55.7757 70.6402 55.7757 70.5409 55.7757 70.3422C56.1703 70.6402 56.3676 70.3422 56.9595 70.3422C57.0581 70.6402 56.9595 70.7395 57.0581 70.9381C57.5514 70.8388 56.9595 70.4415 57.1568 70.4415C57.2554 69.8456 58.4392 71.0375 58.6365 70.0443C59.8202 69.8456 60.708 70.1436 61.8918 69.9449C61.8918 70.2429 61.5959 70.3422 61.4972 70.5409C62.1877 70.5409 63.5688 70.6402 64.7525 70.9381ZM63.6674 68.7531C63.8647 68.5545 63.0755 68.3558 63.3715 67.9585C63.6674 68.2565 64.062 68.3558 64.1607 68.9517C63.6674 69.349 62.0891 68.7531 61.5959 68.9517H61.4972C61.6945 69.0511 61.2999 69.0511 61.4972 68.9517C61.4972 68.9517 61.4972 68.9517 61.3986 68.9517C61.004 68.7531 60.0175 69.0511 59.4256 69.0511C57.7487 69.0511 55.8744 68.8524 54.7893 68.1572C54.7893 67.6606 55.1839 67.6606 55.2825 67.2633C55.5784 67.2633 55.2825 67.5613 55.4798 67.5613C55.7757 67.5613 55.3812 67.2633 55.973 67.3626C55.8744 67.2633 55.8744 67.0647 55.7757 67.0647C55.973 67.0647 56.3676 67.3626 56.9595 67.164C57.1568 67.9585 58.4392 68.0579 59.0311 68.2565C59.2283 68.2565 58.8338 67.8592 59.1297 67.7599C59.2283 68.1572 60.2148 68.3558 60.6094 68.1572C60.6094 67.9585 59.9189 67.9585 59.9189 68.1572C59.6229 67.7599 60.8067 68.0579 60.5107 67.7599C61.2999 67.7599 62.4837 67.9585 63.6674 68.7531ZM59.327 61.9C59.8202 61.8007 60.8067 61.6021 61.3986 61.8007C61.1026 63.3898 61.004 64.7803 61.3986 66.2701C60.5107 66.2701 59.9189 66.2701 59.327 66.3694C59.327 64.8796 60.1162 63.4892 59.327 61.9ZM72.9401 49.6837C72.2496 49.6837 72.7429 50.3789 72.2496 50.3789C72.2496 50.5776 72.6442 50.4783 72.6442 50.6769C72.2496 54.749 69.1916 57.3313 66.4295 59.1191C63.6674 59.3177 61.8918 61.5028 58.5378 60.6089C56.4663 61.1055 55.6771 59.2184 54.296 59.1191C51.6326 56.4375 49.2651 52.564 49.2651 48.5912C49.1665 48.3926 49.0678 48.2932 48.8705 48.0946C49.2651 47.598 48.9692 46.7041 48.9692 46.4062C48.9692 46.1082 49.4624 46.3068 49.561 46.1082C48.18 44.0225 49.1665 41.2415 48.4759 39.2551C48.6732 38.2619 48.9692 37.5667 48.7719 36.4742C49.561 34.3885 48.5746 31.1109 49.0678 29.5218C48.8705 28.2307 48.9692 27.1381 48.18 26.2443C49.857 26.0456 52.0272 27.1381 53.9015 26.9395C54.0988 27.0388 53.9015 27.1381 53.9015 27.2375C55.4798 27.5354 57.1568 27.4361 58.4392 27.6347C58.6365 27.6347 58.7351 27.9327 58.9324 27.9327C59.2283 28.032 59.4256 27.7341 59.6229 27.7341C59.8202 27.7341 60.1162 28.032 60.4121 28.032C61.1026 28.1313 61.7931 28.33 62.2864 28.33C62.5823 28.33 62.7796 28.1313 63.0755 28.1313C63.1742 28.1313 63.2728 28.4293 63.3715 28.4293C63.8647 28.6279 65.443 28.4293 66.3309 28.4293C66.8241 28.4293 67.3173 28.5286 67.7119 28.1313C68.2051 28.4293 68.8957 28.33 69.5862 28.33C71.5591 28.9259 73.2361 28.032 75.1104 27.8334C75.0117 29.1245 75.3076 30.3164 75.209 31.6075C75.0117 31.7068 74.8144 31.8062 74.6171 31.9055C74.6171 32.5014 74.8144 32.7 75.1104 32.998C75.3076 33.8919 74.9131 34.3885 74.9131 35.183C74.9131 35.481 75.1104 35.779 75.1104 36.1762C75.1104 37.3681 74.5185 38.7585 74.3212 40.2483C74.0252 43.0293 73.3347 46.9028 72.9401 49.6837ZM81.9169 36.5735C81.5224 36.2756 81.5224 36.9708 81.4237 37.1694C81.2264 37.5667 80.7332 37.8647 80.6345 38.2619C80.4372 39.0565 80.0427 39.6524 79.8454 40.2483C79.3521 40.447 79.3521 40.9436 79.3521 41.3409C78.6616 41.5395 78.0697 42.7313 78.1684 43.0293C77.8724 43.2279 77.9711 43.3273 77.6752 43.3273C77.5765 43.3273 77.6752 43.5259 77.7738 43.5259C77.5765 44.0225 76.3928 44.7177 76.59 45.3136C76.3928 45.3136 76.0968 45.3136 76.0968 45.5123C76.1955 45.6116 76.2941 45.5123 76.4914 45.7109C76.1955 45.9096 75.8995 46.2075 75.6036 46.4062C75.8009 46.5055 75.7022 46.3068 75.7022 46.8034C75.6036 46.8034 75.6036 46.7041 75.5049 46.7041C75.5049 47.0021 75.3076 47.1014 75.6036 47.2007C75.6036 47.4987 75.4063 47.1014 75.209 47.2007C75.209 47.4987 75.4063 47.6973 75.1104 47.4987C75.1104 47.598 75.1104 47.7966 75.209 47.7966C75.1104 48.0946 74.9131 47.6973 74.8144 47.896C74.8144 48.2932 74.9131 48.4919 75.209 48.8892C75.1104 49.1871 74.9131 49.1871 74.9131 49.4851C74.5185 49.3858 74.5185 49.4851 74.1239 49.5844C74.1239 48.9885 74.1239 48.3926 74.4198 48.3926C74.4198 47.598 74.5185 47.3994 74.2225 47.0021C74.4198 46.4062 74.9131 45.2143 74.6171 44.5191C74.7158 44.3204 74.8144 44.6184 74.9131 44.4198C74.6171 43.8239 75.4063 43.4266 74.9131 42.93C75.5049 42.4334 75.4063 41.5395 75.4063 40.5463C75.8995 40.149 75.6036 39.4538 75.7022 38.9572C75.8009 38.7585 75.9982 38.6592 76.0968 38.4606C76.3928 37.7653 76.1955 36.9708 76.59 36.5735C76.9846 36.1762 78.0697 36.2756 78.9576 35.8783C79.1548 35.481 80.5359 35.3817 80.4372 34.5871C80.9305 34.8851 81.1278 33.7926 81.5223 33.4946C81.7196 33.296 82.0156 33.3953 82.2129 33.1966C82.3115 33.0973 82.8047 32.1041 83.1007 32.4021C83.1007 31.7068 83.8899 31.8062 84.0871 31.2102C83.8899 31.8062 83.4953 32.8987 82.9034 33.5939C82.9034 33.6932 83.002 33.6932 83.1007 33.6932C83.1007 33.8919 82.7061 33.6932 82.6075 33.8919C82.7061 34.0905 82.8047 34.4878 82.3115 34.5871C82.2129 35.183 82.2129 35.779 81.7196 35.9776C82.0156 36.1762 82.0156 36.1762 81.9169 36.5735ZM85.8628 33.4946C85.5668 33.9912 85.1722 34.2892 84.975 34.7858C84.7777 35.183 84.8763 35.481 84.679 35.779C84.4817 36.0769 84.5804 35.8783 84.4817 36.1762C84.3831 36.3749 83.6926 36.9708 83.5939 37.1694C83.1993 37.7653 82.7061 38.7585 82.0156 39.0565C82.4102 37.7653 83.4953 36.4742 83.6926 35.2824C84.679 34.3885 87.1452 29.6211 83.5939 29.9191C82.9034 30.515 82.4102 30.813 81.5223 31.4089C81.5223 31.5082 81.7196 31.5082 81.9169 31.5082C81.9169 31.7068 81.621 31.9055 81.5223 31.6075C80.7332 32.2034 80.1413 33.0973 79.3521 33.5939C79.8454 33.8919 78.9576 33.7926 79.2535 34.2892C78.3657 34.4878 77.8724 34.9844 76.6887 35.183C76.4914 34.3885 76.3928 33.3953 76.4914 32.7994C77.2806 32.7994 78.4643 32.3028 78.8589 31.7068C79.7467 31.5082 81.0291 30.515 81.4237 29.8198C82.3115 29.4225 82.6075 29.0252 82.9034 28.2307C83.8899 28.1313 84.8763 28.2307 85.5668 28.9259C87.0465 29.9191 86.7506 32.0048 85.8628 33.4946ZM66.7254 32.6007C65.9363 32.8987 65.6403 32.0048 64.9498 32.5014C64.7525 32.1041 64.062 32.2034 63.9634 32.4021C63.7661 32.3028 63.5688 32.2034 63.3715 32.1041C63.1742 32.2034 62.9769 32.3028 62.681 32.4021C62.681 32.3028 62.681 32.2034 62.5823 32.2034C62.385 32.5014 62.1877 32.1041 61.4972 32.4021C61.5959 32.2034 60.708 32.1041 60.4121 32.3028C60.2148 31.9055 59.4256 32.0048 59.1297 32.2034C59.1297 32.7994 58.7351 32.8987 58.4392 33.3953C57.9459 34.2892 57.5514 35.5803 56.4663 36.3749C56.269 37.3681 55.1839 38.2619 55.6771 39.3545C55.4798 39.1558 55.1839 39.2551 54.8879 39.2551C54.7893 39.6524 55.0852 39.6524 54.9866 40.0497C56.9595 40.9436 58.8338 40.5463 60.6094 40.8443C60.6094 40.5463 60.8067 40.447 61.1026 40.3477C60.9053 40.9436 60.6094 41.9368 60.8067 42.1354C60.708 42.1354 60.6094 42.1354 60.5107 42.1354C60.2148 45.3136 59.0311 47.2007 60.2148 50.081C60.6094 49.9817 60.5107 49.8824 61.004 49.8824C60.9053 47.598 61.1026 44.7177 62.0891 42.7313C61.6945 42.8307 62.1877 42.0361 62.0891 42.4334C62.1877 41.6388 62.1877 40.7449 62.1877 40.0497C62.5823 39.4538 62.5823 38.1626 62.681 37.3681C62.2864 37.2687 62.1877 36.9708 61.9904 36.9708C62.0891 36.9708 62.0891 36.7721 61.9904 36.7721C61.9904 36.8715 61.6945 37.0701 61.7931 36.7721C61.1026 36.8715 60.9053 37.964 60.4121 37.964C60.1162 38.5599 60.2148 39.1558 59.6229 39.4538C59.2283 39.6524 56.4663 39.3545 56.0717 38.9572C56.5649 39.0565 56.269 38.5599 56.4663 38.4606C56.5649 38.4606 56.5649 38.5599 56.7622 38.5599C57.1568 38.0633 57.0581 37.5667 57.65 37.1694C57.7487 37.2687 57.7487 37.5667 57.9459 37.5667C57.5514 36.9708 58.0446 36.6728 58.2419 36.0769C58.2419 36.1762 58.2419 36.2755 58.3405 36.2755C58.8338 35.3817 59.8202 33.8919 60.4121 33.1966C62.2864 33.0973 64.2593 33.6932 65.9363 33.3953C67.2187 36.6728 65.0485 40.447 64.8512 43.3273C64.6539 43.5259 64.5552 43.7245 64.4566 43.9232C64.6539 44.0225 64.5552 44.4198 64.2593 44.5191C63.9634 46.7041 63.6674 48.9885 63.5688 50.8755C62.2864 50.4783 60.1162 50.081 58.7351 50.7762C58.4392 53.1599 61.3986 52.0674 62.4837 52.3653C63.0755 52.266 63.7661 52.1667 63.7661 53.0606C64.062 52.9613 64.062 53.0606 64.062 53.3585C65.6403 53.6565 64.6539 51.8687 65.2458 51.0742C64.8512 51.1735 65.0485 50.2796 65.2458 50.6769C64.8512 49.783 65.443 48.5912 65.0485 47.6973C65.2458 47.896 65.1471 47.6973 65.3444 47.598C65.443 46.6048 65.8376 45.7109 65.739 44.9164C66.1336 44.7177 65.9363 44.0225 66.2322 43.8238C66.2322 43.6252 66.1336 43.6252 66.0349 43.5259C66.8241 43.4266 66.4295 41.9368 66.6268 41.2415C66.7254 40.9436 67.0214 40.9436 66.8241 40.5463C67.12 40.7449 67.416 38.3613 67.5146 38.2619C68.1065 36.5735 67.5146 35.481 67.2187 33.8919C67.12 33.296 67.12 32.998 66.7254 32.6007ZM57.7487 75.0102C58.0446 75.1096 58.0446 74.8116 58.2419 74.8116C58.2419 75.0102 58.3405 75.0102 58.4392 75.1096C58.5378 74.9109 58.6365 75.2089 58.7351 75.0102C58.7351 74.8116 58.6365 74.8116 58.6365 74.613C58.2419 74.613 57.65 75.0102 57.9459 74.4143C57.8473 74.4143 57.5514 74.4143 57.5514 74.5136C57.7487 74.7123 57.5514 74.9109 57.7487 75.0102ZM75.209 82.1613C75.1104 81.8633 75.0117 82.2606 74.8144 82.1613C74.9131 81.6647 74.5185 81.5653 74.0252 81.5653C74.0252 82.1613 74.4198 82.3599 74.5185 82.9558C74.8144 82.7572 75.5049 83.0551 75.3076 83.4524C75.6036 83.3531 75.6036 83.3531 75.5049 83.6511C75.8009 83.6511 75.8009 83.8497 76.1955 83.7504C75.8995 84.1477 76.6887 84.0483 76.7873 84.5449C75.8995 84.9422 74.3212 85.0415 74.3212 86.0347C74.4198 86.2334 74.9131 86.1341 75.0117 86.432C74.8144 86.5313 74.7158 86.73 74.5185 86.8293C71.0659 87.1273 68.797 87.9218 66.0349 88.7164C64.6539 89.1136 62.8783 89.6103 61.5959 89.8089C59.7216 90.0075 57.2554 87.7232 55.6771 87.5245C53.1123 87.1273 51.0407 86.0347 49.0678 85.3395C48.0813 84.9422 47.1935 84.9422 46.503 83.949C46.4044 83.4524 46.4044 83.3531 46.3057 82.8565C46.9962 82.1613 47.8841 81.6647 47.8841 80.6715C47.3908 80.7708 47.5881 80.2742 46.9962 80.1749C46.7989 81.0687 45.4179 81.1681 45.122 81.8633C44.7274 82.6579 45.3193 83.7504 45.7138 84.6443C45.9111 84.6443 46.0098 84.8429 46.2071 84.6443C46.0098 84.8429 46.2071 84.7436 46.2071 85.0415C48.4759 86.1341 50.4489 86.9286 53.1123 87.6238C53.1123 87.7232 53.1123 87.8225 53.2109 87.9218C53.3096 87.6239 54.0988 88.2198 53.7042 88.1205C54.8879 88.5177 56.269 88.6171 57.7487 89.0143C58.3405 89.6102 59.7216 90.3055 60.4121 90.5041C60.9053 90.7028 61.4972 91.0007 62.2864 91.0007C62.4837 90.5041 63.4701 90.8021 63.7661 90.3055C64.9498 90.7028 65.6403 90.4048 66.8241 89.7096C67.416 90.2062 68.2051 89.4116 68.5997 89.1136C69.0929 89.3123 70.474 88.6171 70.8686 88.4184C71.5591 88.6171 72.7429 87.6239 73.4334 87.9218C74.3212 87.6239 74.7158 87.5245 75.7022 87.5245C75.8995 87.2266 76.0968 86.8293 76.59 86.73C76.6887 86.2334 76.2941 86.1341 76.0968 85.8361C76.9846 86.3327 77.8724 85.6375 78.267 84.7436C77.5765 83.5517 76.1955 83.0551 75.209 82.1613Z" fill="#EA8418"/>
</g>
<defs>
<clipPath id="clip0">
<rect width="51" height="73" fill="white" transform="translate(36.8365 18)"/>
</clipPath>
</defs>
</svg>
