<svg width="118" height="100" viewBox="0 0 118 100" fill="none" xmlns="http://www.w3.org/2000/svg">
<ellipse cx="49.8623" cy="50" rx="49.8623" ry="50" fill="#FEFFCB"/>
<g clip-path="url(#clip0)">
<path fill-rule="evenodd" clip-rule="evenodd" d="M92.4716 29.6C92.0716 27.8 89.3716 29.7 90.8716 31.3C91.6716 31.5 92.5716 30.4 92.4716 29.6ZM84.6716 37.2C86.9716 37.7 89.5716 36.8 90.2716 35.1C88.9716 35 88.0716 35.9 86.9716 36C85.2716 36.2 83.8716 35.2 82.6716 35.1C82.3716 36.2 83.6716 37 84.6716 37.2ZM38.3716 39.4C38.9716 40 38.9716 38.7 39.7716 39.3C39.9716 38.5 39.7716 38.4 39.7716 37.6C39.2716 37.6 39.1716 37.1 38.6716 37.1C38.6716 37.6 38.6716 38.1 38.4716 38.4C38.3716 37.5 38.2716 37.4 38.3716 36.5C38.0716 36.5 37.9716 36.2 37.6716 36.3C36.9716 37.3 37.3716 38.9 38.2716 39.7C37.9716 39.9 37.7716 40 37.3716 40C36.6716 38.7 37.5716 36.7 35.9716 36.1C34.7716 38.2 37.2716 43 38.3716 39.4ZM35.5716 40.8C34.4716 40.1 35.4716 37.6 33.7716 37.1C33.6716 38.5 33.7716 40.8 35.5716 40.8ZM42.1716 41.6C42.6716 41.3 43.0716 40.8 42.9716 39.9C42.3716 39 41.3716 39.5 40.8716 40.1C40.9716 40.8 41.2716 41.5 42.1716 41.6ZM36.7716 44.1C37.8716 43.8 37.0716 42.4 36.7716 41.9C36.2716 41.7 35.7716 42.1 35.3716 42.4C35.2716 42.8 35.5716 42.8 35.3716 43.1C35.7716 43.2 35.8716 43.2 35.8716 43.7C36.3716 43.6 36.2716 44.1 36.7716 44.1ZM34.9716 47.5C34.9716 48.7 35.9716 48.9 36.5716 49.6C39.3716 50.4 42.8716 48.7 42.9716 45.8C41.7716 46 41.0716 46.7 40.5716 47.6C38.6716 48.9 36.7716 48.5 34.9716 47.5ZM22.4716 45.6C23.2716 45.9 24.0716 44.8 25.3716 45C25.5716 44.6 25.7716 44.1 25.8716 44C25.9716 44.4 26.5716 44.3 26.8716 44.6C26.9716 47.1 28.2716 48.8 29.5716 50.1C29.9716 50.5 30.4716 51.5 30.6716 51.7C32.4716 52.9 33.9716 54.6 36.2716 55.5C36.8716 55.4 36.9716 55.5 37.5716 55.6C37.6716 55.6 37.6716 55.4 37.7716 55.4C37.9716 55.9 38.7716 55.4 39.4716 55.4C39.8716 56.8 40.6716 58.6 41.9716 58.4C43.2716 58.2 45.4716 55.1 45.1716 53.8C43.3716 54.4 42.7716 56.1 41.2716 57C40.5716 56.6 40.6716 55.9 40.3716 55.4C40.4716 55.3 40.4716 55.1 40.5716 55.1C40.9716 55.3 40.7716 56.2 41.2716 56.4C41.0716 55.7 41.2716 55.5 41.1716 54.9C43.5716 54 44.9716 52.1 46.6716 50.4C47.5716 52.1 48.2716 53.4 49.3716 55C49.4716 55.6 49.7716 55.8 50.0716 56.1C51.6716 58.4 52.6716 61.1 53.9716 63.7C54.5716 65 55.5716 66.5 56.6716 67.4C56.8716 67.1 57.1716 67 57.2716 66.6C54.4716 63.3 53.2716 58.4 50.6716 55C49.6716 53.4 48.5716 52 47.5716 50.3C47.2716 50.2 46.9716 50.2 46.8716 50C47.2716 49 48.5716 48.4 49.0716 47.6C49.1716 47.4 49.0716 47.1 49.1716 46.8C49.2716 46.4 49.7716 46 49.8716 45.7C50.2716 44.3 49.6716 42.5 49.9716 41.2C49.5716 40.6 49.1716 40 49.1716 39.1C48.7716 38.4 47.9716 37.6 47.5716 36.6C48.1716 36.1 48.6716 35.5 49.2716 35C49.2716 35.2 49.4716 35.3 49.7716 35.2C49.7716 35.3 49.6716 35.4 49.6716 35.5C51.9716 36.2 54.9716 36.7 57.0716 35.4C57.2716 34.2 55.9716 34.2 55.1716 34L55.2716 33.8C54.0716 33.6 52.0716 33.6 51.2716 33.5C50.3716 33.3 49.9716 32.6 50.9716 32.6C50.9716 32.8 50.5716 32.7 50.6716 32.9C53.9716 32.4 56.5716 32.6 59.5716 32.3C59.7716 31.6 58.9716 31.8 58.8716 31.4C58.7716 27.4 53.5716 28.1 51.4716 30C51.4716 29.9 51.4716 29.8 51.4716 29.8C50.0716 30.5 49.0716 31 47.6716 31.9C47.4716 31.8 47.3716 31.6 46.9716 31.7C46.4716 32 46.3716 32.7 45.4716 32.5C45.3716 33.2 44.9716 33.6 44.6716 34.1C42.3716 32.7 38.4716 33.8 36.0716 35C36.0716 35.3 36.4716 35.3 36.0716 35.5C35.9716 35.5 35.9716 35.3 35.9716 35.2C31.8716 35.1 29.0716 37.6 27.3716 40.4C25.9716 39.9 25.0716 39 23.8716 38.6C21.6716 37.9 18.8716 38 16.5716 38.1C16.4716 38.4 16.3716 39 16.8716 39.4C17.3716 38.7 18.5716 39.7 19.1716 39.2C19.9716 39.9 21.1716 39.4 21.7716 39.9C19.1716 39.9 14.2716 41.5 15.0716 43.6C15.8716 43.3 16.4716 43.4 15.8716 42.9C17.0716 43.3 17.4716 41.9 18.9716 42.2C18.7716 42.2 18.8716 41.8 18.7716 41.7C18.8716 41.9 19.1716 41.9 19.3716 42C17.9716 43 15.7716 44.7 17.1716 46.3C17.1716 46 17.3716 46.5 17.6716 46.3C17.7716 45.9 17.5716 45.9 17.4716 45.7C19.1716 43.4 21.3716 42.2 24.2716 41.9C23.9716 41 23.3716 40.4 22.7716 39.7C23.2716 39.7 24.7716 39.9 25.2716 40.6C24.7716 41.6 24.7716 42.6 25.2716 43.6C22.4716 43 19.0716 45.8 19.7716 48.3C20.4716 48.4 20.1716 47.2 20.7716 47.6C20.8716 47 20.7716 47.3 21.0716 46.7C21.4716 46.9 21.6716 46.5 21.7716 46.1C22.3716 46.3 22.3716 45.7 22.4716 45.6ZM52.4716 30.7C53.0716 30.7 53.4716 30.2 53.7716 30.4C53.7716 29.9 54.0716 30.4 54.3716 29.8C54.7716 30.3 55.7716 29.8 55.9716 29.3C55.7716 29.8 56.8716 29.4 57.4716 29.8C57.8716 30 58.1716 30.9 58.4716 31.4C57.4716 31.2 54.7716 30.9 53.8716 31.4C53.3716 30.9 52.6716 31.6 52.0716 31.3C51.9716 30.9 52.7716 30.8 52.4716 30.7ZM49.2716 33.2C49.2716 33.7 49.4716 34 49.7716 34.2C49.5716 34.4 49.1716 33.8 48.8716 34.3C48.7716 34.2 48.9716 33.5 48.7716 33.3C48.9716 33.3 48.9716 33.1 49.2716 33.2ZM46.9716 33.5C47.1716 33.8 47.9716 33.4 47.8716 34C47.3716 34.1 46.8716 33.6 46.7716 34.1C46.4716 34 46.9716 33.7 46.9716 33.5ZM29.4716 39.6C30.5716 38.2 33.2716 36.2 35.1716 35.7C35.7716 35.5 35.7716 35.4 36.2716 35.6C36.6716 35.7 36.4716 35.2 36.7716 35.1C39.5716 34.5 41.3716 34.4 43.8716 34.4C44.5716 34.9 45.1716 35.2 45.7716 35.9C47.8716 38.1 49.7716 41.5 48.7716 45.3C48.2716 47.1 46.7716 48.5 45.5716 50C44.9716 50.7 44.1716 51 43.6716 52.2C42.3716 53.1 40.8716 53.8 39.1716 54.4C38.3716 54.5 36.8716 54.7 35.6716 54.3C33.5716 53.6 29.9716 49.9 28.8716 47.8C27.5716 45.6 27.7716 41.5 29.4716 39.6ZM26.8716 41.3C27.2716 41.2 27.1716 42 26.7716 41.8C26.7716 41.5 26.9716 41.5 26.8716 41.3ZM26.3716 41.3C26.6716 41.6 26.5716 42.3 27.0716 42.4C26.8716 42.7 26.6716 42.9 26.1716 42.9C25.7716 42.3 25.8716 41.7 26.3716 41.3ZM82.8716 44.8C87.7716 44.3 90.9716 42.7 94.7716 42.7C95.1716 42.8 95.3716 43.6 95.6716 43C95.1716 40.6 92.5716 41.4 90.8716 41.7C90.8716 41.7 90.8716 41.5 90.7716 41.5C90.1716 41.5 88.8716 42.1 89.2716 42.2C86.7716 42.5 83.6716 43.3 80.8716 44C80.9716 44.9 81.9716 44.9 82.7716 45.1C82.9716 45.1 82.5716 44.8 82.8716 44.8ZM117.572 42.9C116.772 42.8 115.972 42.9 115.372 42.9C115.772 42.5 116.072 42.3 116.372 42.4C116.572 42.2 116.472 41.7 116.372 41.5C114.072 41.2 113.272 43.3 112.272 44.6C112.172 44.4 111.772 44.5 111.572 44.4C108.272 45.4 103.372 44.7 99.5716 44.2C99.5716 44.1 99.4716 44.1 99.3716 44.1C99.1716 43.4 98.9716 42.9 98.8716 42.3C98.2716 42.2 98.0716 41.6 97.2716 41.7C97.7716 44.8 98.5716 48.3 98.3716 51.5C98.3716 51.8 98.6716 51.6 98.6716 51.8C98.2716 52 98.3716 52.7 98.3716 53.1C98.3716 54.6 98.8716 56.4 98.8716 58.2C98.7716 60.6 98.8716 63.5 98.3716 66.1C96.9716 66 95.2716 66.2 94.1716 66.3C92.7716 66.4 92.1716 66.1 91.4716 66.1C90.6716 66.1 89.9716 66.5 89.1716 66.6C88.8716 66.6 88.5716 66.4 88.2716 66.4C88.0716 66.4 87.6716 66.8 87.3716 66.7C86.1716 66.6 84.7716 67.1 82.8716 66.9C82.8716 69.6 83.7716 70.6 83.5716 73.2C84.1716 72.9 83.5716 73.7 84.1716 73.9C83.7716 75.1 84.5716 76.5 84.7716 77.4L84.5716 77.3C84.7716 78.2 85.3716 78.9 84.8716 79.8C86.5716 81.2 89.5716 79.3 91.6716 79.2C91.7716 80.5 92.4716 81.1 92.1716 82.6C91.0716 82.7 90.4716 82 89.4716 82.4C88.7716 83.7 87.3716 84.2 86.8716 85.7C88.2716 87.4 91.8716 87.1 93.1716 85.7C93.4716 85.2 93.1716 84.8 93.8716 84.7C93.9716 83.5 94.4716 83.3 94.0716 82.5C94.4716 82.6 94.2716 81 94.2716 80.6C93.6716 80.2 93.8716 79.5 93.5716 78.7C94.2716 78.8 95.0716 78.8 95.9716 78.6C96.3716 79.6 95.9716 79.8 96.2716 80.7C95.7716 80.3 95.8716 82.5 96.2716 81.8C95.9716 82.5 96.7716 82.6 96.3716 83.5C97.6716 86.2 102.672 86.8 102.972 83.2C101.472 82.3 99.4716 82.5 98.1716 83.3C97.7716 81.5 98.1716 80.6 97.8716 78.6C97.6716 78.4 97.0716 78.5 96.8716 78.3C97.4716 77.9 98.6716 78.2 99.3716 78.1C99.2716 78.6 99.6716 78.7 99.9716 78.9C100.072 78.6 100.372 78.6 100.572 78.4C100.772 76.3 100.672 74.1 100.772 71.9C100.972 69.3 100.372 66.6 100.572 64C100.772 61.6 100.872 59.2 100.372 56.7C100.472 54.7 100.572 52.1 99.8716 50.1C100.172 49 99.4716 46.4 99.7716 45.3C100.772 45.3 101.672 45.7 102.272 45.4C102.172 45.8 102.672 45.6 102.572 46C102.972 46.1 102.772 45.7 103.072 45.7C103.072 45.8 103.072 45.9 103.072 46C103.872 45.5 104.872 46.2 106.272 46.2C106.472 46.2 106.672 45.9 106.972 46C107.172 46 107.272 46.2 107.472 46.2C109.372 46.2 111.072 45.4 112.372 45.6C112.472 45.6 112.772 45.7 112.872 45.7C113.872 46.3 114.772 47.4 115.772 48.1C115.772 47.9 116.072 48 116.272 48C116.072 47.4 115.872 47.4 115.672 46.5C114.972 46.2 114.372 45.8 113.872 45.4C114.272 44.1 116.772 43.7 117.872 44.1C117.872 44 117.872 43.8 118.072 43.9C117.872 43.3 117.672 43.2 117.572 42.9ZM88.8716 85.8C89.6716 84.7 90.2716 83.1 92.0716 83.4C91.6716 84.8 90.7716 86.2 88.8716 85.8ZM101.072 83.7C100.772 84.2 100.272 84.5 99.6716 84.7C99.2716 84.5 98.9716 84.3 98.8716 83.8C99.3716 83.7 100.972 82.8 101.072 83.7ZM91.6716 66.3C91.6716 66.4 91.5716 66.4 91.5716 66.3C91.0716 66.4 91.2716 66.5 90.7716 66.5C90.7716 66.1 91.4716 66.1 91.6716 66.3ZM98.9716 76.6C96.9716 76.7 95.2716 77.2 93.5716 77.6C93.0716 76.6 92.9716 74.7 93.4716 73.7C93.3716 73.7 93.2716 73.7 93.2716 73.8C93.1716 72.9 93.0716 70.7 92.7716 69.6C92.4716 69.2 91.9716 69.1 91.1716 69.1C91.3716 72.1 90.9716 75.5 91.3716 77.8C89.7716 78.3 88.3716 78.4 86.6716 78.8C85.6716 74.7 85.2716 71.6 84.8716 68C89.3716 67.6 94.7716 67.7 98.7716 67.1C99.3716 70.3 98.7716 74.2 98.9716 76.6ZM83.6716 65.3C84.0716 64.7 83.4716 64.5 83.3716 64C83.4716 57.8 83.2716 51.5 81.7716 46.1C81.8716 46.1 82.0716 46.3 82.0716 46.1C81.9716 46.1 81.9716 46 81.9716 45.9C81.8716 45.9 81.8716 45.8 81.7716 45.8C81.7716 46 81.6716 46 81.5716 45.9C81.4716 46.1 81.8716 46.3 81.5716 46.4C81.2716 46.2 80.6716 45.9 80.4716 46.1C80.2716 46.8 80.8716 47.5 80.6716 48C80.4716 47.9 80.2716 47.8 79.9716 47.8C78.9716 47.9 78.3716 49.1 77.3716 48.8C75.3716 49.7 72.0716 50.7 69.5716 51.2C69.5716 51 69.5716 50.8 69.4716 50.7C70.9716 50.3 72.2716 49.6 73.2716 49.1C72.2716 48.1 71.4716 48.8 70.5716 49.1C69.4716 49.4 68.0716 49.5 67.2716 50C66.2716 48.5 63.8716 50.2 63.4716 51.5C62.4716 51.2 61.1716 51.3 60.3716 51.4C59.3716 51.6 57.1716 51.6 55.3716 52.5C53.8716 52.7 51.9716 52.9 50.3716 53C50.3716 53.7 50.8716 53.9 51.0716 54.4C55.8716 54.5 59.4716 53 63.3716 52.5C63.3716 52.9 63.7716 53 63.4716 53.3C63.2716 53.1 62.8716 53 62.6716 52.8C62.8716 54.5 64.3716 55.8 65.7716 56.7C65.9716 56.5 65.7716 56.1 65.9716 55.9C65.2716 55.2 64.7716 54.2 63.7716 53.5C64.8716 53.3 65.5716 53.7 66.8716 53.7C67.2716 52.4 65.3716 52.1 64.5716 52C65.3716 51.6 65.7716 50.9 66.7716 50.7C66.9716 50.9 67.2716 51 67.4716 51.3C67.1716 51.3 66.9716 51.3 66.9716 51.6C67.7716 52.9 68.7716 53.8 70.2716 53.3C69.7716 53.1 69.2716 52.9 68.9716 52.5C69.4716 52.5 69.7716 52.7 69.7716 52.8C69.8716 52.4 70.6716 52.7 71.1716 52.6C71.3716 52.4 71.4716 52 71.7716 51.9C73.6716 51.9 74.0716 51.1 75.1716 51.2C75.1716 51 75.0716 50.9 75.0716 50.9C77.2716 50.6 78.7716 49.6 80.9716 49.1C81.2716 52.3 81.9716 53.9 81.7716 57C81.7716 56.9 81.9716 56.9 81.9716 57C81.2716 57.2 81.5716 58.5 81.8716 58.9C81.0716 59.3 81.7716 60.4 81.7716 61.3C81.6716 62.9 81.4716 64.6 83.1716 65.3C83.0716 65.1 83.5716 65.3 83.6716 65.3ZM78.3716 33.8C79.1716 35.9 80.4716 37.5 81.7716 39.2C83.6716 40.1 86.1716 40.9 88.2716 40.6C88.4716 40.4 88.8716 40.4 89.2716 40.6C90.2716 39.5 92.2716 39.3 93.5716 38.4C93.7716 37.6 95.1716 37.1 95.6716 35.9C95.7716 36.2 96.1716 35.8 95.8716 35.7C95.8716 35.7 95.8716 35.8 95.8716 35.7C95.9716 35.5 96.2716 34.9 96.4716 34.8C96.9716 35 97.5716 34.6 98.2716 34.7C99.7716 33.4 98.4716 30.7 96.7716 30.5C96.8716 29.9 96.5716 29.8 96.4716 29.5C96.1716 28.7 96.4716 27.2 95.9716 28.2C95.9716 27.8 95.8716 27.8 96.0716 27.5C95.7716 27.5 95.6716 27.5 95.5716 27.3C95.9716 27.3 95.1716 26.2 94.9716 26C92.7716 23.7 88.2716 22.6 84.5716 23.1C82.5716 25.6 77.6716 26 77.5716 30.7C77.1716 30.3 76.6716 30.1 76.0716 29.9C74.4716 31.3 75.9716 34.5 78.3716 33.8ZM97.9716 31.9C98.2716 32.6 97.5716 33.1 96.9716 33.3C96.9716 32.4 97.1716 31.6 97.9716 31.9ZM89.0716 26.1C88.8716 26.1 88.8716 26.2 88.8716 26.3C88.0716 26 88.3716 24.9 88.1716 24.5C88.8716 24.7 88.9716 25.4 89.0716 26.1ZM79.9716 28C81.5716 26.7 83.3716 25.7 84.6716 25.1C84.6716 25.3 84.9716 25.6 84.4716 25.6C84.5716 26 84.8716 25.6 85.0716 25.8C85.2716 27.2 85.7716 28.2 87.2716 28.3C86.9716 27.9 86.4716 26.7 86.2716 25.8C86.2716 25.7 86.4716 25.7 86.5716 25.7C86.1716 25.5 85.9716 25.2 85.9716 24.7C86.1716 24.6 86.6716 24.8 86.6716 24.6C86.8716 26 87.0716 28.9 89.0716 28.9C89.0716 28.6 88.8716 28.5 88.5716 28.4C88.9716 28 88.0716 27.2 88.3716 26.2C88.5716 26.4 89.1716 26.4 89.1716 26.1C89.7716 26.6 90.1716 27.8 91.2716 27.5C90.9716 26.3 90.4716 25.7 89.9716 24.8C93.7716 25.1 96.6716 28.8 95.3716 33.6C95.0716 33.7 94.7716 33.7 94.5716 33.9C94.4716 34.3 94.6716 34.4 95.0716 34.4C94.4716 35.5 93.3716 37.2 92.0716 37.9C91.3716 38.3 89.7716 38.7 88.7716 39C85.2716 40.2 81.0716 38.2 80.1716 35.2C80.0716 35.1 79.8716 35.1 79.9716 34.9C79.8716 34.9 79.8716 34.9 79.8716 35C79.8716 34.7 79.3716 33.6 79.3716 33.9C78.9716 33.6 79.4716 33.3 79.5716 33.1C79.5716 32.8 79.1716 32.9 78.8716 32.9C78.5716 30.9 79.2716 29.3 79.9716 28ZM76.9716 31.3C77.4716 31.6 77.8716 32 77.8716 32.9C77.3716 33.1 76.6716 32.9 76.3716 32.6C76.4716 32 76.7716 31.7 76.9716 31.3ZM84.1716 31.8C85.0716 31.4 85.4716 30.4 85.8716 29.4C85.4716 28.8 84.4716 28.3 83.7716 28.9C83.7716 29.3 83.8716 29.2 83.7716 29.6C82.7716 30 83.4716 31.4 84.1716 31.8ZM35.7716 58.7C35.8716 59.9 35.6716 61.2 35.4716 62.2C35.2716 63 35.2716 64.7 35.1716 65.6C34.9716 67 35.0716 68.4 34.9716 69.5C34.7716 71.2 33.8716 74.9 35.9716 75.5C36.2716 75.4 36.3716 75.2 36.4716 74.8C36.5716 74.4 35.8716 74.8 35.9716 74.3C35.7716 68.2 37.3716 62.3 37.2716 56.4C36.8716 56.3 36.5716 56 35.9716 56.1C35.7716 56.5 35.9716 56.8 35.8716 57C33.4716 56.2 30.6716 56.8 28.5716 57.2C26.8716 55.8 24.8716 54.8 22.9716 53.7C23.0716 54.9 23.6716 55.5 24.3716 56C22.7716 55.7 20.1716 57.4 22.4716 58.4C23.3716 57.2 26.1716 57 27.4716 57.9C26.8716 59.6 22.8716 57.9 23.5716 60.5C23.9716 60.4 23.8716 60.7 24.0716 60.7C24.8716 60.2 26.1716 60.1 27.1716 59.8C27.1716 59.4 27.2716 59.2 27.3716 58.9C28.2716 58.5 28.6716 58.8 29.7716 58.8C31.6716 58.9 33.9716 58.1 35.7716 58.7ZM44.5716 82.4C44.7716 80.6 44.7716 77.4 44.5716 75.1C44.2716 75 43.9716 75.4 43.9716 75.1C47.1716 74 49.7716 73.3 52.9716 72.1C53.6716 72.6 54.7716 71.5 54.8716 71.9C55.2716 71.4 57.1716 71.8 56.6716 71.3C57.4716 71.4 58.6716 70.8 58.9716 70.8C59.2716 69.9 58.3716 69.8 57.9716 69.2C57.6716 69.2 57.7716 69.7 57.6716 69.8C53.9716 70.4 51.1716 71 48.6716 72.1C48.6716 71.8 48.1716 72.1 47.9716 72C47.7716 72.3 47.6716 72.3 47.6716 72.5C43.0716 73.3 38.6716 76.1 33.4716 77C33.5716 77.4 33.6716 77.6 33.7716 77.9C37.5716 78.1 39.9716 76.3 43.1716 75.6C43.1716 80 43.0716 83.7 43.3716 87.2C41.3716 87.7 39.0716 88.3 37.9716 90.1C39.1716 91.7 41.2716 94.1 43.0716 92.6C45.7716 92.7 43.6716 88.6 44.9716 87.8C44.1716 86.3 45.2716 83.7 44.5716 82.4ZM40.8716 91.5C40.9716 90.7 40.0716 90.9 40.0716 90.2C40.9716 89.5 41.9716 89 43.1716 88.5C43.5716 89.1 43.0716 90.1 43.3716 90.9C42.6716 91.6 41.8716 92 40.8716 91.5ZM58.9716 84.4C57.4716 84.3 56.5716 84 55.4716 84.9C55.2716 85.4 55.1716 85.9 54.5716 85.9C54.0716 83.8 52.8716 82.4 52.7716 80.2C51.7716 78.2 52.0716 75.3 51.4716 73.5C51.0716 73.5 50.4716 73.1 50.0716 73.4C50.5716 76.4 49.9716 77.7 51.3716 80.2C51.3716 80.4 51.1716 80.3 51.1716 80.4C51.9716 81.3 51.5716 83.7 52.8716 84.6C52.8716 85.8 53.8716 87.8 54.6716 89.1C54.5716 91.3 56.8716 90.9 58.1716 90.5C58.9716 89.8 59.6716 88.4 60.2716 88.1C60.2716 87.4 60.1716 87.2 60.5716 87C60.4716 85.6 60.0716 85.2 58.9716 84.4ZM56.2716 89.3C55.5716 88.5 55.3716 87.1 54.7716 86.1C55.6716 86 57.3716 84.9 58.6716 85.5C58.8716 87.4 57.7716 88.9 56.2716 89.3Z" fill="#CFB000"/>
</g>
<defs>
<clipPath id="clip0">
<rect width="102.8" height="70" fill="white" transform="translate(15.0716 23)"/>
</clipPath>
</defs>
</svg>
