<svg width="126" height="100" viewBox="0 0 126 100" fill="none" xmlns="http://www.w3.org/2000/svg">
<circle cx="50" cy="50" r="50" fill="#E5FFCB"/>
<path fill-rule="evenodd" clip-rule="evenodd" d="M58.6 54.5C59.4 54.8 60.3 54.3 60.7 54C60.3 53.9 59.8 54.3 59.5 54C62.7 52.8 66.5 51.8 69.2 50.4C65.2 51.3 61.3 52.3 58.5 54.1C58.8 54.1 58.4 54.3 58.6 54.5ZM62.2 55.9C62.9 56 64.8 55.3 65 54.6C62.5 54.9 60.7 56 59.2 57.3C60.3 57.1 61.4 56.7 62.2 55.9ZM124.3 44.1C124.1 43.8 123.7 43.6 123.4 43.3C123.8 42.1 124.6 40.9 123.3 40C123.4 40 123.5 40 123.5 39.9C123 39.7 122.6 38.7 122 39.1C122.1 38.8 121.9 38.8 121.9 38.6C121.4 38.8 121.8 38.5 121.6 38.3C121.3 38.2 121.4 38.5 121.2 38.5C121.4 38.3 121.2 38.3 121.2 38C120.6 38 120.5 37.9 120 38C120.2 37.8 120 37.8 119.8 37.9C119.8 37.8 119.9 37.8 119.9 37.6C119.2 37.8 117.5 36.7 117 37.4C117.1 36.8 116.1 37.3 115.8 36.9C115.1 37.1 114.1 36.2 113 36.3C113.1 36.1 111.3 35.4 111 35.5C110.4 35.1 109.3 34.4 108.2 34.6C108.3 34.6 108.3 34.7 108.2 34.7C108.2 34.6 108.1 34.5 108.1 34.3C106 33.6 104.9 32.5 102.8 32.2C102.6 31.8 100.6 31.3 100.3 31.2L99.9 31.1C100 31.1 99.9 30.8 99.8 30.8C99.2 30.7 99 30.6 98.3 30.4C98.4 30.4 98.5 30.4 98.5 30.3C97.5 30 97.1 30 96 29.5C96 29.6 96 29.8 95.9 29.8C95.9 29.6 95.8 29.5 95.7 29.4C95.2 29.8 94.6 28.6 93.8 28.9C93.8 28.6 93.3 28.3 93.1 28.6C92 27.3 89.6 27.9 88.7 27.2C88.3 27.3 88.3 27.2 87.9 27.4C87 26.6 86.1 27.2 85.1 26.5C85.1 27 84.7 26.3 84.5 26.6C84.6 26.2 84.1 26.4 84 26.1C84.3 26.2 84.2 25.9 84.3 25.8C83.1 25.9 82.4 25 81.3 25.2C81.4 25.1 81.4 25 81.2 24.9C81.1 25.4 80.5 24.3 80.3 24.9C80.1 24.4 79.4 24.4 78.9 24.2C78.6 23.8 78.3 23.5 77.7 23.4C77.5 22.3 75.8 23.1 75.1 23.5C73.9 23.7 72.8 24.2 71.4 24.6C70.8 25.3 70.3 25.3 69.3 25.6C69.3 25.7 69.2 25.8 69.1 25.9C68 26 67.1 26.5 66.1 27.1C65.6 27.4 64.6 27.6 64.9 27.5C64.3 27.7 63.6 27.9 63.1 28.2C62.9 28.3 62.6 28.9 62.4 29C62.3 29.1 62.1 29.1 61.9 29C61.9 29.2 61.8 29.3 61.7 29.4C59.4 30.1 55.9 31.4 54 32.8C53.1 33.1 51.6 33.5 50.9 34.4C50.2 34.2 49.5 35 49 35.3C48.8 35.4 48.3 35.4 48.3 35.7C47.6 35.6 46.9 36.3 46.2 36.6C45.3 36.9 44.8 37.4 44.1 37.7C42.6 38.3 40.8 38.8 39.5 39.7C39.5 40 39.3 40.1 39.2 40.3C39.2 40.2 39.2 40.1 39 40.1C37.7 41 36.2 41.5 35 42.6C33.7 43.1 31.9 44 30.5 45C29.7 44.7 29.5 45.9 28.7 45.9C29 46.4 28.6 47 28 47.2C28 48 28.7 48 28.6 48.9C28.7 49 28.9 48.6 29 48.8C28.5 49.6 29.3 50.3 29.7 51.1C29.4 52.2 31.2 53.3 32.2 53.3C32.2 53.4 32.2 53.5 32.1 53.6C35 55 38.1 56.5 41 58.4C40.8 59 40.8 59.1 41 59.5C40.9 59.5 40.8 59.5 40.7 59.4C40.7 59.8 40.9 60.4 41.1 60C41.1 61 40.7 61.3 41.1 62.8C40.8 62.8 40.5 62.8 40.4 62.7C40.4 63.4 40.4 63.4 40.3 64.1C40.5 64.1 40.9 64.9 41 65.2C41 65.2 41 65.2 41 65.3C41 65.3 41 65.3 41 65.2C40.9 65.1 40.7 65.4 40.7 65.4C39.8 66.1 41.2 67.4 41.6 68.1C39.8 68.3 41.6 71.2 42.4 71.9C42.4 72.5 42.4 73 42.1 73.3C42 73.3 41.7 73.3 41.7 73.2C41.7 73 41.8 72.9 41.7 72.9C41.3 73 41.1 73.3 40.7 73.4C40.7 73.6 40.7 73.7 40.7 73.9C38.9 74.8 38.4 77.9 39.8 79.4C39.8 79.6 39.7 79.6 39.7 79.8C40.1 79.6 40.1 80 40.3 80.2C39.3 81.8 38.5 84 38.3 86C38.1 86 38.1 86.1 38 86.2C37.9 87.7 37.6 88.8 38.5 90.1C38.3 89.7 38.5 89.4 38.4 89.1C39 89.3 39.2 88.3 39.5 87.9C39.5 89.1 40.3 89.9 41.3 89.7C41.4 90.2 41.8 90.4 42.3 90.5C42.6 90.5 42.6 90.1 43 90.1C42.8 90.6 43.5 90.7 44.2 90.7C44.7 90.1 44.5 88.9 45.5 88.9C45.5 86.1 45.7 82.7 45.1 80.4C45.2 79.6 45.8 78.8 45.6 77.9C45.5 77.3 44.8 76.9 45.3 76.5C45.1 76 45.4 75.2 44.9 74.6C44.6 74.7 44.7 74.6 44.3 74.6C44 75.2 44.4 76.5 44 76.8C43.5 75.9 44.8 74.4 43.4 73.6C44.1 71.8 43.3 70 44.3 68.7C44.2 68.6 44 68.5 43.9 68.4C44.5 65.7 44.2 63.2 44.7 60.2C46.1 59.7 46.6 61.8 48.2 61.6C48.2 61.7 48.2 61.9 48.3 61.9C48.6 61.7 49.3 62.3 49.8 62.1C53.8 63.8 57.9 64.5 61.4 66.8C62 66.9 62.3 66.8 62.3 67.2C63.5 67.7 65 68.1 65.8 68.8C67.1 69.2 68.9 68.9 69.8 69.7C70.3 69.2 71 70.3 71.6 69.8C71.6 70 71.6 70.1 71.7 70.2C73 70.5 73.7 70.8 74.7 71.3C74.7 71.5 74.5 71.4 74.5 71.6C74.8 72.3 76.3 71.4 76.4 72.2C76.6 72 77.1 72.1 77.3 71.8C77.1 71.8 77.3 71.5 77.2 71.3C78 71.1 78.9 70.5 79.5 70.5C79 70.8 78.8 71.3 78.5 71.9C78.8 72 78.9 72.3 79.4 72.2C79.8 71.7 80.2 71.1 80.7 70.9C80.5 71 80.4 71.4 80.3 71.7C80.6 71.6 80.6 72.2 81 71.9C80.7 72 81.6 71.3 81.8 71.4C81.8 71.7 81.3 71.4 81.4 71.9C82.6 72.9 83.7 70.8 84 70.3C84 70.4 84.1 70.4 84.2 70.4C84.1 70.7 83.7 70.7 83.7 71.1C83.9 71.5 84.5 71.5 84.8 71.6C85 71.5 85 71 85.1 70.8C85.2 70.8 85.2 70.9 85.4 70.9C85.5 70.7 85.4 70.5 85.5 70.4C85.5 70.5 85.6 70.6 85.7 70.6C86 70.2 86.1 69.8 86.3 69.5C86.3 69.5 86.3 69.4 86.4 69.4L86.5 69.3C86.5 69.3 86.5 69.4 86.4 69.4L86.3 69.5C86.3 69.5 86.3 69.5 86.4 69.6C86.6 69.4 86.8 69.3 86.7 68.9C86.9 69.1 86.9 68.9 87.1 68.8C87.1 67.9 88.4 67.6 88.2 66.6C88.5 66.8 88.8 66.2 89 66C88.7 65.8 88.7 65.9 88.5 65.8C89.2 65.6 89.4 65 90.3 64.9C89.1 66.9 87.6 68.5 86.3 70.3C86.3 70.5 86.6 70.4 86.5 70.7C86.8 70.8 86.9 70.6 87 70.5C87 70.8 87 70.9 87.3 70.9C87.5 70.6 87.5 70.2 87.8 69.9C87.8 70 87.9 70 88 70C87.8 70.3 87.5 70.4 87.5 71C87.8 70.7 88 70.6 88 71C88.7 70.4 89.3 70 89.6 69.3C89.6 69.5 89.9 69.2 89.9 69.5C89.4 70.3 88.9 70.6 88.8 71.7C88.9 71.7 89.1 71.7 89.2 71.7C89.1 70.7 90.6 70 90.2 69.7C90.8 69.4 91.1 68.9 91.4 68.2C91.5 68.4 91.1 68.6 91.4 68.7C91.7 68.1 92.2 67.7 92.5 67C92.3 67 92.2 67.1 92.2 67C92.4 66.7 92.7 67 92.8 66.7C92.8 66.5 93.1 66.4 93 65.9C93.7 65.7 93.6 64.8 94.3 64.8C94.1 64.2 94.7 64.1 94.7 63.6C94.1 63.7 94.1 64.3 93.6 64.5C93.6 64.2 93.6 63.8 93.4 63.7C93.3 63.8 93 63.8 92.9 63.6C92.8 64 92.3 64.4 92.3 65C92.3 64.9 92.3 64.7 92.2 64.7C91.7 65.4 91.2 66.1 90.5 66.6C90.6 66 91.4 65.7 91.2 65.1C91.5 65.2 91.9 64.6 91.7 63.9C92.8 63.9 93.3 62.5 94.7 62.4C96.1 61.4 97.6 60.5 99 59.9C98.3 60.5 97.4 60.8 97 61.7C97.1 61.7 97.2 61.7 97.2 61.9C97.7 61.9 97.7 61.3 98.3 61.3C97.4 62.9 95.4 63.6 94.2 64.9C94.1 65.3 94.3 65.4 94.4 65.6C95.1 65.4 95.4 64.9 96.1 64.6C95.1 66.3 93.9 67.9 93.3 69.9C93.6 69.9 93.5 70.2 93.9 70C94 69.4 94.3 68.9 94.7 68.4C95 68.4 94.9 68.7 95.3 68.6C96 68.1 97.1 67.4 97.7 67.1C97.2 68.3 95.6 68.5 94.9 69.5C94.9 69.4 94.9 69.3 94.8 69.3C94.7 69.4 94.7 69.5 94.6 69.7C95.3 70 94.9 71 95.6 71.4C95.1 71.7 94.4 71.7 93.9 72C94.9 72.7 96.1 71.9 96.7 72C96.8 71.7 97.3 71.5 97.4 71.7C97.4 71.9 97.2 71.9 97.3 72.2C97.5 72.4 97.7 72.6 97.9 72.8C98.9 71.3 99.9 69.9 101.6 69.5C100.6 71.1 98.6 72.1 98.7 74.4C98.7 74.3 98.8 74.3 98.8 74.4C98.4 75.5 96.9 75.4 96.2 76.2C92.2 77.6 87.7 78.7 82.6 79C81.1 79.1 79.4 79.3 77.8 79.3C77.2 79.3 76.5 79 76 79C71.3 78.7 66.7 78.4 63.1 76.8C61.7 76.9 60.3 76.2 59.4 75.5C58.6 75.5 57.7 74.9 56.9 74.6C56.4 73.8 55.6 73.5 54.9 73C54 72.4 53 71.5 53 70.8C52.8 68.8 53 66.2 52.5 64C52.5 63.7 53 63.8 53 63.4C52.7 63.3 52.4 63.6 52.4 63.4C52.2 63.2 52.4 63.3 52.4 63C52.1 62.9 51.6 62.7 51.1 63C51.5 65.5 51.7 68 51.9 70.3C51.9 70.3 51.9 70.4 51.9 70.5C51.9 70.4 51.9 70.4 51.9 70.3C51.8 70.2 51.6 70.3 51.5 70.3C50.7 71.4 51.8 73.1 53.1 72.5C56.7 76.9 64.3 78.1 69.6 79.7C69.5 79.6 69.5 79.4 69.6 79.4C71.6 79.7 74.6 80.1 76.5 79.8C76.4 80.3 77.4 80.1 77.5 79.9C78.3 80.2 79.6 80.1 80.6 79.8C80.8 80.3 81.5 80 81.8 79.7C83.3 80.2 84.2 79.4 85.4 79.8C85.6 79.8 85.5 79.5 85.7 79.5C86 80 87.2 79 87.2 79.6C87.6 79.5 87.5 79.2 87.9 79.5C87.9 79.3 87.9 79.2 88.1 79.2C88.5 79.5 90.1 79.2 90.6 78.7C90.8 79 91.7 78.7 92.1 78.3C93 78.5 95.9 77.6 96.6 76.8C96.9 77.3 97.5 76.5 98 76.2C98.9 75.7 100.5 75.4 100.9 74.5C101.4 74.3 102.1 74.3 102.5 73.4C104.3 72.5 105.8 70.7 107.3 69.2C107.5 69.3 107.5 69.6 107.8 69.6C108.5 69.2 108.5 66.3 107.2 67.3C107.4 67.4 107.5 67.5 107.6 67.7C105.3 70.2 102.6 72.6 99.8 74.4C99.8 74.2 99.7 74.2 99.6 74.1C101.7 71.1 104.6 68.2 106.1 65.2C105.8 65.3 105.9 65 105.7 65C105.3 65.3 104.8 66.4 103.9 66.7C104 66.7 104.1 66.8 104.1 66.9C103.1 67.1 102.2 68.2 101.1 68.7C102.5 67 103.4 64.8 105 63.3C104.3 63.1 104.9 62.9 104.7 62.6C104.4 62.7 104.1 63 104 63.4C104 63.3 104 63.2 103.8 63.2C103.3 64.4 101.8 65.1 100.9 65.6C100.6 66.2 100.1 66.1 99.7 66.5C100.7 65.2 101.8 64 103.4 63.3C103.7 62.4 105.2 62.3 105 61.2C104.2 61.3 103.6 62.3 103.1 62.4C103.7 61.5 104.4 60.6 104.8 59.8C104.5 59.8 104.5 60 104.6 59.7C102.1 60.8 100.2 62.7 98.1 63.8C99.4 62.6 100.9 61.6 102.2 60.7C102.2 60.7 102.2 60.7 102.3 60.7C102.3 60.7 102.3 60.7 102.2 60.7C102.2 60.8 102.3 60.8 102.4 60.9C102.8 59.4 104.8 58.9 104.9 57.5C103.1 58.4 101.7 60 99.9 61.2C100 60.8 99.7 60.9 99.7 60.6C102.6 59 104.8 56.4 108 55.2C108 55.7 108.2 57.2 107.8 57.7C108.1 58.6 107.7 60.4 107.5 61.9C107.2 63.8 107 65.3 106.8 66.7C107.1 67 107.4 66.8 107.6 67.1C108.2 66.2 108 64.7 108.3 63.6C108.3 63.7 108.2 63.7 108.2 63.6C108.7 62.4 109 60.3 108.7 59.5C109.2 59.3 108.9 58.1 109.4 57.7C109.3 57.7 109.2 57.7 109.1 57.8C109.5 56.7 109 55.7 109.7 54.7C109.5 54.7 109.4 54.8 109.4 54.7C109.6 54.7 109.3 54.5 109.4 54.3C109.7 54.3 109.6 54.1 109.8 54.3C109.7 54.1 110.1 53.8 110.5 53.6C110.7 53.5 111.1 53.5 111.3 53.4C111.6 53.2 111.8 52.7 112.3 52.5C113.2 52 114 51.3 114.6 51C115.3 51.1 115.3 50.5 115.9 50.5C116.9 49.2 118.7 48.6 120.1 47.7C120.3 47.6 120 47.5 120.2 47.4C122.1 46.8 123.6 45.8 125 44.8C125 44.9 125.2 45 125.2 44.9C123.5 44.6 124.3 44.8 124.3 44.1ZM100.1 66.6C100.2 66.6 100.2 66.7 100.2 66.8C100.4 66.5 100.6 66.1 101 66C100.6 66.4 100.4 66.9 99.9 67.1C99.6 67 100 66.7 100.1 66.6ZM98.8 67.5C99.1 67.4 99.4 67.2 100 67.2C98.7 69 97.7 70.5 95.5 71.3C95.5 70.7 96.2 70.3 96.4 69.7H96.3C96.6 68.7 98.5 68.2 98.8 67.5ZM100.6 62.5C100.8 62.5 100.8 62.6 100.8 62.7C99.2 64.8 97 66.2 94.7 67.6C95.6 64.8 98.6 64.1 100.6 62.5ZM43.1 65.7C41.6 65.7 41.4 64.5 41.2 63.4C41.7 63.9 42.2 64.9 43 64.9C42.9 65.2 43.1 65.3 43.1 65.7ZM41.3 65.8C41.8 66.1 42.1 66.6 42.8 66.8C42.6 67.1 42.7 67.6 42.7 68.1C41.8 67.5 41.7 66.8 41.3 65.8ZM41.5 68.6C42.7 68.4 42.5 69.9 42.5 70.6C41.8 70.4 41.5 69.2 41.5 68.6ZM39.9 77.2C40.1 76.5 40.7 75.9 41 75.5C41 76.4 40.7 77.8 41.6 78.5C40.8 79 40.1 77.8 39.9 77.2ZM38.6 87.2C38.3 86.7 38.9 86.2 39 85.6C39.2 84.8 39.5 83.7 39.9 82.5C40.1 82.5 40.1 82.2 40.2 82.1C40.3 82.1 40.4 82.2 40.4 82.4C40 83.6 39.3 85.9 38.6 87.2ZM40.8 89.3C40.4 89.2 40.1 88.8 40 88.2C39.8 86.2 41.2 83.2 41.6 81.4C41 84.2 41.2 86.5 40.8 89.3ZM42 89.5C41.6 87.4 42.3 85.6 42.5 83.1C42.6 83.1 42.7 83.2 42.7 83.3C42.7 84.2 42.5 85 42.4 85.8C42.3 87.4 43.1 88.9 42 89.5ZM43.5 89.6C44.2 87.3 43.7 85.6 43.8 83C44.3 84.2 44.2 85.7 44.3 87C44.3 87.9 44.1 88.9 43.5 89.6ZM44.3 82.3C44.1 82.3 44.2 82 43.9 82.1C44.2 81.7 43.7 81.7 43.9 81.4C44.2 81.5 44.1 82.1 44.3 82.3ZM43.4 77.7C43.2 78.1 43.7 77.8 43.4 78.3C43.5 78.2 43.7 78.2 43.7 78.1C43.8 78.4 43.9 78.7 44 79.1C43.6 79.5 43 79.3 42.8 79.7C42.7 79.7 42.7 79.6 42.7 79.5C42.6 79.8 42 79.8 41.7 80C41.4 79.8 40.7 79.8 40.4 79.2C40.7 78.8 41 79.2 41.5 79.2C41.4 79 42 78.3 41.6 78.9C41.8 79 42 79 42.3 79.2C42.4 79.2 42.5 79 42.6 79C42.6 78.9 42.5 78.9 42.5 78.8C42.5 78.7 42.4 78.8 42.2 78.8C42.1 78.5 42.4 78.5 42.4 78.3C41.2 77.9 42.2 75.9 42.2 75.3C42.4 75.3 42.3 75.4 42.3 75.5C42.3 75.7 42.5 75.4 42.5 75.6C42.1 76.4 43.1 76.9 42.8 77.8C43.1 77.8 43 77.8 43.4 77.7ZM81.1 70.2C80.7 70.3 80.6 70.1 80.4 70C80.6 69.7 81.1 69.7 81.4 69.4C81.8 69.4 81.2 69.9 81.1 70.2ZM82.1 70.7C81.9 70 83.6 69.3 83.1 68.6C83.5 68.2 84 67.9 84.7 67.7C83.8 68.8 82.9 69.6 82.1 70.7ZM86.2 67.7C85.5 68.4 85 69.3 84.2 69.7C84.6 69.2 85.1 68.4 85.6 68.2C85.4 67.9 85.1 67.7 84.8 67.5C85.5 66.9 86.4 66.5 87.2 66C87.4 66.8 86.6 67.4 86.2 67.7ZM108 55.2C107.6 55.3 107.6 55 107.2 55.1C107.1 54.5 107.7 54.7 107.9 54.4C108.1 54.5 107.9 54.9 108 55.2ZM122.6 44.3C122.1 45.2 120.7 45.2 120.2 46.1C117.8 46.9 116 48.3 114.3 49.7C110 52.3 105.3 54.7 101.3 57.8C100.8 57.6 100.5 58.2 100.1 58.4C99.2 58.9 98.1 59.2 97.2 59.8C96.4 60.3 95.7 61 94.9 61.4C92.9 62.3 91 63.2 89.3 64.5C84.7 66.3 80.6 69.7 76.3 70.8C75.9 70.2 76.1 69.6 76 68.8C79.9 67.1 83 64.8 86.8 63C87.8 62.1 89.3 61.6 90.5 60.9C91.1 60.1 92.6 59.8 93.9 59.1C94.9 58.6 95.7 58 96.6 57.3C97.6 56.6 99 56.5 100.1 55.6C100.7 55.6 101.1 55.3 101.5 55C103 53.9 104.3 53.3 106 52.5C107.3 51.9 108.4 51.2 109.7 50.6C110.2 50.4 110.4 50 110.9 49.6C111.8 49 113 48.5 114 48C114.7 47.7 115.5 47.5 115.7 46.6C116.4 46.5 116.9 46.1 117.3 45.7C119.8 45.2 120.4 43.3 122.7 42.6C123 41.9 122.5 41.8 122.4 41.4C121.9 41.9 121.1 42.1 120.5 42.6C119.9 43 119.3 43.9 118.6 44.4C118.4 44.5 118.3 44.5 118.1 44.6C117.7 44.8 117.2 44.8 117.1 45.4C117 45.4 117 45.2 117 45.1C115.6 45.4 114.8 46.8 113.6 47.3C112.5 47.8 110.8 48.2 109.9 49.5C108.4 49.9 106.7 51.1 105.3 51.7C105.3 51.8 105.3 51.8 105.4 51.8C104.5 52.2 102.4 52.9 101.7 53.7C101 54.1 99.9 54.7 99.2 55.3C98.7 55.4 98.3 55.4 97.9 55.8C95.8 56.5 94.1 57.9 92.1 58.7C90.7 59.3 89.7 60.2 88.5 60.8C87.9 61.1 87.3 61.3 86.7 61.7C85.2 62.7 83 63.2 81.9 64.7C81 65.1 80 65.3 79.5 66.1C79.2 65.9 77.8 66.8 76.8 67.4C76 67.8 75.5 68.1 74.9 68.5C74.9 68.7 75.1 69.3 75.4 69C75.6 69.3 75.4 70.1 75.7 70.4C75.2 70.5 74 69.9 73.4 69.4C69.5 68.4 65.6 68.2 62.8 66.1C62.7 66.1 62.7 66.2 62.7 66.3C61.3 65.6 59.6 64.6 58.3 64.4C58.2 64.4 58.3 64.3 58.3 64.1C57.7 64 55.9 63.6 55.6 63.1C55.3 63.4 54.9 62.9 54.5 62.8C54.4 62.8 54.3 63 54.3 63C54 62.9 53.5 62.4 53.1 62.3C52.9 62.2 52.7 62.4 52.5 62.3C51.9 62.1 51.4 61.6 50.6 61.4C50.2 61.3 49.6 61.4 49.1 61.2C48.8 61.1 48.5 60.8 48.2 60.7C48.1 60.7 48 60.9 47.8 60.8C47.2 60.5 46.9 59.8 46.2 59.8C46.6 58.8 47.7 58.9 48.1 58.2C50.3 60.8 54.6 61 57.3 62.8C58.3 63.2 59.4 63.4 60.4 63.8C62 64 63.4 64.5 64.7 65.1C65.1 65.1 65.3 65.3 65.9 65.3C66 65.4 66.2 65.5 66.3 65.7C67.7 66 69.2 66.2 70.1 67C71.9 67.2 73.1 68.2 75.3 67.7C75.6 66.4 74.6 67.1 73.5 67C72.8 66.9 72.4 66.4 72 66.7C72 66.3 71 66.3 70.5 66.3C70.6 66 70.3 66.1 70.3 65.9C69.3 65.6 68.2 65.4 67.4 64.9C67.2 64.9 67.2 65 67 65C67 64.8 66.9 64.8 66.9 64.7C65.8 64.7 65.2 64 64.4 64.1C63.8 63.5 61.9 63.4 61.7 63C61 63 59.8 62.8 59.3 62.5C59.2 62.5 59.1 62.6 59.1 62.8C58.9 62.2 58.4 61.9 57.7 62C57.5 62 57.7 61.7 57.6 61.5C57.5 61.6 57.5 61.7 57.3 61.7C55.7 61.2 54 60.1 52 59.5C50.8 59.1 49.8 58.6 49 58.3C48.8 58.1 49.1 58 49.1 57.6C49.7 57.9 49.9 57 50.6 57.1C50.7 57 50.7 57 50.8 56.7C51.9 56.7 52.9 56.1 53.5 55.3C53.9 55.7 54.4 54.9 54.8 55.2C55.3 54.5 56.8 54.4 56.8 53.6C57.1 54 57.4 53.5 57.6 53.3C58.2 53.5 58.6 52.8 59.1 52.6C59.3 52.5 59.8 52.5 60 52.4C60.8 52 61.5 51.4 62 50.8C62.5 50.3 63.5 50 64.1 49.5C64.3 49.5 64 49.8 64 49.9C64.7 50.5 65.3 49.7 65.8 49.4C66.6 48.9 67.8 48.8 68.8 48.5C70.4 48 72 47.3 73.3 46.8C72.4 46.4 70.9 47.3 69.6 47.5C70.5 46.6 72 46.8 72.9 45.8C72.8 45.8 72.1 45.9 71.6 46C71.6 45.5 72.4 45.9 72.4 45.2C72.8 45.1 73.2 45.3 73.5 44.9C73.6 44.9 73.6 45.1 73.6 45.2C74.9 44.5 75.7 43.3 75.1 41.5C74.4 41.1 73.7 40.3 72.6 40.3C71.5 40.3 69.8 40.9 69.3 41.7C69.1 42 69.3 42.6 68.8 42.8C67.8 42.3 67.9 43.6 67.3 43.8C66 43.2 65 44.1 64.2 44.8C62.8 44.5 62.1 45.1 61.4 45.9C60 46 59.6 46.7 58.9 47.7C57.5 47.4 56.5 48.3 55.7 49.2C54.2 49.4 53.3 50.7 52.6 51.4C51.3 51.3 50.9 52 50.3 52.8C49.8 52.7 48.7 53 48.4 53.2C48 53.5 47.5 54.7 47 54.8C46.7 54.8 46.6 54.7 46.3 54.7C43.9 55.2 43.8 57.2 45.3 58.1C45.4 57.9 45.6 57.8 45.9 57.8C45.9 57.4 45.5 57.5 45.2 57.3C45.2 56.8 45.4 56.7 45.4 56.2C46.1 55.9 46.5 55.4 47.3 55.3C47.1 56.1 47.8 56.6 48.3 57.1C47.8 57.3 46.3 57.8 46.1 58.3C45.2 58.5 44.3 58.9 43.7 59.7C43.8 60 44 60.2 44.2 60.4C43 61.7 43.2 62.8 43 64C41.6 63.9 41.3 61.2 42.2 60.8C42.3 60.4 41.9 60.5 41.8 60.4C41.6 59.6 42 58.5 42.8 58.3C43 58.3 43.4 58.7 43.6 58.2C43.5 57.4 42.3 57.4 41.8 57.8C41 57.7 41 56.9 40 57C39.9 57 40 56.9 40 56.7C39.6 56.7 39.6 56.4 39.5 56.3C38.8 55.8 37.6 55.7 37 55.2C36.9 55.1 37 54.9 36.9 54.8C36.5 54.4 35.4 54.4 34.7 54C34.6 54 34.3 53.5 34.3 53.5C34.1 53.4 34 53.6 33.8 53.5C33.5 53.4 33.4 52.8 32.9 53C32.9 52.4 31.7 52.2 31.2 51.8C31.2 51.6 31.3 51.6 31.3 51.4C30.7 50.9 30 50.3 29.7 49.2C33.1 51 35.8 53.3 39 55.2C40.5 55.4 41.3 56.3 42.5 56.8C42.9 56.7 43 56.3 43.1 55.8C42.3 55.2 41.1 54.9 40.5 54.1C40.4 54.3 40 54.1 40 54.3C36.7 52.9 34.8 50.2 30.9 48.6C30.8 48.2 30.1 47.6 29.6 47.2C29.7 46 31.3 45.4 32.3 44.9C34.5 43.6 37.1 42.6 39 41C39.9 40.7 40.9 40 41.7 39.5C44.8 37.9 48.5 36.7 51 35C51.4 35.2 53 34.1 53.7 33.7C55.1 33 56.8 32.3 58.3 31.7C59.3 31.3 60.6 30.9 61.5 30.4C63.7 29.4 65.5 27.8 67.8 27.4C70.7 26.3 73.6 25 77.1 24C81 27.3 87.8 28 93.2 29.4C97.4 31.5 102.7 32.6 106.6 34.9C109.6 35.4 112.2 37.2 114.9 37.8C117.5 38.4 121 38.1 123 40.4C123 41.8 122 42.7 122.6 44.3ZM50.5 54.4C50.5 53.7 51.6 51.9 52.3 52.6C51.8 52.8 52.8 54 52.8 54.6C51.9 54.7 50.9 55.4 50.3 55.9C49.8 55.6 49.5 56.2 49.1 56.3C49.5 56.6 48.6 56.2 49 56.6C48.8 56.6 48.4 56.7 48.2 57C46.9 56 48 54.2 49.5 54C49.6 54.5 50 54.8 50.3 55.1C50.8 55.1 51 54.9 51.3 54.6C51.1 54.5 51 54.5 50.5 54.4ZM55.9 50.1C56.4 49.8 56.8 49.4 57.2 48.9C57.4 48.9 57.5 49.1 57.5 48.9C57.6 49.8 57.4 50.3 58.1 50.9C58.3 50.9 58.4 50.7 58.6 50.7C58 50.3 58.6 49.6 58.5 49.1C59.3 48.6 59.6 47.6 60.3 47.2C60 47.5 59.9 48.8 60.6 49.5C60.8 49.5 61.1 49.5 61.2 49.4C60.7 49.2 60.8 48.6 60.9 48C61.2 48 61.8 47.6 62 47.1C62.5 47.2 62.3 47 62.4 46.9C62.9 47.2 62 48.5 62.9 48.7C62.1 49.7 60.5 50.2 59.8 50.9C59.7 51.1 59.6 51 59.6 50.8C59.1 51.6 58.1 51.6 57.7 52.3C57.3 52.1 56.8 52.3 56.6 52.8C56.3 52.7 55.6 53.1 55.4 53.5C55.3 53.5 55.4 53.4 55.4 53.3C55 53.3 55.2 53.4 55.2 53.7C55.1 53.4 54.3 53.8 53.9 54.1C52.1 53.3 53.8 51.4 54.7 50.8C55 51.3 55.4 51.8 56 52.4C56.4 52.5 56.2 52.1 56.7 52.2C56.2 51.7 55.4 51.5 55.9 50.1ZM70.7 43.4C71.1 43.3 71.4 43 71.3 42.3C72 41.8 73 42.2 73.4 42.4C73.4 43.9 71.9 44.8 70.4 45.2C70.4 44.9 70 45 70 44.7C70.1 44.1 70.4 43.6 70.5 42.9C70.9 43 70.4 43.3 70.7 43.4ZM70.1 45.2C69.3 45.4 68.7 45 68.7 44.5C68.7 43.9 69.5 43.9 69.5 43.3C69.6 43.4 69.7 43.4 69.9 43.4C69.9 43.3 69.9 43.3 69.9 43.2C70.4 43.8 69.4 44.8 70.1 45.2ZM70.8 46.4C70.4 47 69 47 68.5 47.2C68.8 46.3 69.6 46.6 70.8 46.4ZM69.1 47.8C68.6 48.2 68.1 48.4 67.4 48.4C67.9 48.1 68.5 48 69.1 47.8ZM68.3 46C67.7 46 66.9 46.4 66.4 47.1C66.3 47.1 66.2 46.6 66.1 46.9C66 46.2 67.1 45.8 67.2 44.9C67.6 44.8 67.7 44.6 67.9 44.3C68.2 44.8 68.3 45.7 68.3 46ZM67 48.5C66.9 48.9 66.6 48.6 66.3 48.8C66.1 48.6 66.8 48.5 67 48.5ZM65.8 47.1C65.3 48 64.2 48.2 63.4 48.7C63.7 46.6 64.9 45.3 66.4 44.6C65.9 45.2 64.7 46.8 65.8 47.1ZM65.2 48.9C65.3 48.6 66 49 66.1 48.7C66.3 49 65.4 49.1 65.2 48.9ZM74.3 43.4C74.2 43.3 74.1 43.3 74 43.3C74.1 43.2 74.1 42.9 74.4 42.9C74.5 43.1 74.2 43.1 74.3 43.4ZM57.9 56.3C58.6 56.3 59.6 55.9 60.2 55.3C60.2 55.4 60.1 55.5 60.2 55.5C62.2 54.5 64.4 54 66.4 52.7C63.8 53 62 54.4 59.3 55C58.9 55.6 57.5 55.5 57.9 56.3ZM63.7 51.4C64.4 51.1 65.2 51.1 66 50.8C66.9 50.5 67.8 50.2 68.7 49.9C69.3 49.7 70.1 49.4 70.6 48.9C67.2 49.7 64 50.1 61.6 51.9C62.5 52.6 63.1 51.6 63.7 51.4Z" fill="#3F8F3A"/>
</svg>
