<svg width="31" height="32" viewBox="0 0 31 32" fill="none" xmlns="http://www.w3.org/2000/svg">
<path fill-rule="evenodd" clip-rule="evenodd" d="M22.6 6.70005C22.4 6.60005 21.9 6.70005 22 7.10005C22.4 7.20005 22.4 6.90005 22.6 6.70005ZM0.6 31.3001C2.1 31.1001 3.1 30.4001 4.4 30.0001C5 29.4001 5.9 28.9001 6.3 29.1001C7.1 27.9001 9.1 27.3001 9.8 26.1001C9.8 26.3001 10 26.2001 10.1 26.1001C12.1 28.4001 14.2 30.5001 17.4 30.8C18.1 30.9 19.5 30.6 19.9 30.9C20.4 30.4 21.5 30.5 21.5 30.1C22.1 30.1 22.5 29.7 23.2 29.6C23.7 28.9 24.7 28.3 25.2 27.9C27.5 24.8 29.8 21.6 30.4 18C30.4 17.8 30.3 17.8 30.2 17.7C30.3 17.7 30.4 17.7 30.5 17.7C30.2 16 30.5 14.2001 29.5 12.5C29.5 9.40005 26.4 7.50005 27.1 3.70005C27 3.70005 26.8 3.70005 26.8 3.60005C27.1 3.50005 27.1 2.60005 27 2.40005C24.9 5.50005 27.4 8.70005 28.2 11.2C28.4 11.8 28.6 12.5 28.8 13.1C30.5 18.7 27.4 23.1 24.5 27.2C23.5 27.9 22.5 28.6 21.3 29.1C21.3 29 21.1 29 21 29C20.9 29.2 20.5 29.2 20.4 29.4C18.9 29.8 15.5 29.7001 14.4 28.5001C13.1 28.2001 11.8 27.0001 10.9 25.5001C11.5 24.6001 12.3 23.8001 13.1 23.0001C13.3 23.3001 14.1 23.0001 14 23.6001C14.7 23.5001 15.1 24.2 15.7 24C16.6 24.9 19.2 25.1 20.5 25C21.6 25 22.2 24.5 23 24C22.9 23.7 22.9 23.8 23 23.5C23.4 23.6 23.4 23.4 23.7 23.4C23.6 22.7 24.1 23 24.1 22.6C22.7 23.1 21.7 23.8 20.2 24.2C17.8 24.0001 15.4 23.4001 13.1 22.5001C13.6 22.2 13.8 21.6 14.1 21.2C14.3 21.2 14.3 21.1001 14.5 21.1001C15 19.7001 16.6 18.9001 17.1 16.8C18.3 16.4001 18.3 14.7 19 14.1C18.8 13.4 19.4 12.4001 19.1 11.4001C16.8 14.8001 15.2 19.0001 12.1 21.6001C11.7 20.8001 10.9 20.8001 10.5 20.4001C10.2 20.1001 10.2 19.5001 9.7 19.5001C9.6 18.8001 8.8 18.4001 8.5 17.9001C8.4 17.7001 8.4 17.4001 8.3 17.2001C7.9 16.3001 7.1 15.1001 7.2 14.3001C7.2 14.1001 7.5 13.8001 7.5 13.6001C7.6 12.8001 7.7 11.8001 7.8 10.8001C7 11.2001 6.6 12.1001 6.5 13.0001C5.9 17.0001 9 20.4001 11.7 22.2001C11.1 22.4 10.8 22.9 10.4 23.0001C10.7 23.1001 9.7 23.6001 9.5 23.8001C9.2 23.2001 8.5 23.6001 8 23.4001C7.6 23.3001 7.5 22.8001 7.3 22.7001C6.7 22.3001 5.7 22.3001 5 21.9001C4.5 21.6001 3.6 20.9001 3.4 20.6001C2.2 19.1001 2.6 17.3001 2.4 15.5001C2.5 15.5001 2.6 15.5001 2.7 15.5001C2.8 14.0001 3.7 13.5001 4 12.0001C4.4 11.8001 4.4 11.3001 4.9 11.2001C5.1 10.2001 6.4 9.80005 6.9 9.00005C7.9 7.70005 10.2 7.60005 12.1 7.10005C14.8 6.30005 16.9 5.40005 19.7 4.90005C19.8 4.60005 20.1 4.60005 20.2 4.40005C21.6 4.10005 23 2.70005 24.2 2.10005C24 1.20005 25.2 1.30005 25 0.200049C24 0.100049 23.9 1.40005 23.2 1.20005C22 2.70005 20 3.20005 18.3 4.20005C14.4 5.10005 10.2 6.30005 6.8 7.40005C5.8 8.50005 4.2 9.30005 3.3 10.8001C3.2 10.9001 3.4 11.1001 3.3 11.2001C2.5 12.4001 1.5 13.3001 1.3 14.9001C1.2 15.5001 1.3 16.1001 1.1 16.6001C1.4 17.0001 1.2 17.3001 1.2 18.0001C2.1 22.2001 5.4 23.0001 8.5 24.8001C6.1 26.7001 2.9 27.8001 0.399999 29.7001C0.4 30.0001 0.899999 29.8001 0.799999 30.2001C0.699999 30.4001 0.1 30.2001 0.1 30.6001C-0.199999 30.7001 0.4 31.1001 0.6 31.3001ZM9 25.5001C9.1 25.6001 8.1 26.2001 7.8 26.5001C7.7 26.1001 8.6 25.7001 9 25.5001ZM6.5 27.0001C6 28.1001 4 28.6001 2.9 29.5001C2.4 29.4001 2.3 29.7001 1.9 29.7001C3.5 28.7001 5 28.0001 6.5 27.0001ZM24.7 10.6C24.8 10.6 25 10.6 25 10.7C24.4 10.8 24.1 11.6001 23.6 12.0001C23.6 12.0001 23.5 11.9 23.4 11.9C22.8 12.2 22.4 13.1001 21.9 13.4C21.9 13.7 21.9 13.9 22.1 14.0001C22.3 13.7001 22.6 13.8 22.7 14.1C24 13.5 25.5 12.3 25.7 10.8C25.5 10.8 25.5 10.9 25.4 11.0001C25.4 10.7001 25.4 10.5 25.4 10.2C25 10.3 24.7 10.4 24.7 10.6ZM16.5 20C17 21 18.4 20.9 19.2 21C19.2 21 19.2 21.3 19.3 21.2C20.6 20.7 22 20.5 22.8 19.5C22.8 19.6 22.8 19.7 22.9 19.7C23 18.8 24.2 19 24.1 18C24.6 18 24.9 17.3 24.7 17C24.3 17.3 24.8 16.4 24.3 16.3C24.2 16.9 23.9 16.9 23.6 17.2C23.6 17.1 23.7 17.1 23.7 17C22.1 18.7 19.6 20.2 16.5 20ZM10.7 11.8001C10.5 14.7001 11.7 17.6001 14 18.6001C13.6 17.0001 12.6 16.0001 11.7 14.8001C11.8 14.8001 11.9 14.8001 12 14.9001C12 14.6001 11.8 14.4001 11.6 14.2001C11.8 13.5 11.2 11.9 11.5 11.1C11.2 11 11 11.6 10.7 11.8001ZM15.4 8.50005C14.5 10.1001 14.7 12.9 16.3 13.6C16.5 12.2 15.5 10.3001 15.7 8.80005C15.3 9.00005 15.9 8.50005 15.4 8.50005Z" fill="#D52E1E"/>
</svg>
