<svg width="62" height="82" viewBox="0 0 62 82" fill="none" xmlns="http://www.w3.org/2000/svg">
<path fill-rule="evenodd" clip-rule="evenodd" d="M50.8 18.6C49.7 18 48.3 17.6 46.9 17.2C47.1 18.8 49.6 18.6 50.8 18.6ZM47.5 20.1C47.7 20.2 48 20 48.2 20.1C48.5 20.2 48.2 20.4 48.5 20.4C49.1 20.5 49.9 20.5 50.3 20C48.7 19.7 47.6 18.9 45.9 18.5C45.8 18.6 45.8 18.8 45.8 19.1C46.1 19.4 46.9 20 47.5 20.1ZM45.5 19.8C45.3 20 45.6 20.2 45.4 20.4C46.8 21.3 48.7 22.3 50.3 22.4C50.5 22.2 51.1 22.1 50.9 21.7C48.7 22 47.6 20.1 45.5 19.8ZM16.7 43.4C15.6 43.4 16.2 41.7 14.9 42C14.8 42.7 14.5 43.1 14.6 43.8C15.1 44.4 16.3 44 16.7 43.4ZM26.4 69.2C25.9 70.2 27.5 71.3 27.7 70C29.2 69.4 27 68 26.4 69.2ZM59.1 15.4C59.4 15.3 59.7 15.2 59.7 14.8C59.4 14.6 59.1 14.4 58.8 14.1C60.6 12.6 57.3 11.2 56.3 12.8C55.1 12.1 53.4 11.8 52.2 11C51.5 10.9 51.2 10.9 50.6 10.6C49.5 10.1 47.1 8.89999 46.7 8.39999C46 7.39999 46.6 4.89999 45.3 3.79999C45.3 3.79999 45.2 3.89999 45.2 3.79999C45.4 3.79999 45.1 3.49999 45.2 3.19999C44.6 2.59999 44 2.39999 43.5 2.09999C43.2 1.89999 43 1.49999 42.3 1.49999C42.4 1.29999 41.5 0.799988 40.7 0.999988C41 0.399988 39.2 0.799988 39.6 0.399988C38.9 0.599988 38.6 0.0999878 38.3 0.599988C38.3 0.499988 38.3 0.299988 38.3 0.199988C37.6 0.299988 36.7 -1.22041e-05 36.3 -0.100012C36.3 -0.100012 36.3 0.0999878 36.2 0.0999878C36 0.0999878 35.6 -0.200012 35.3 -0.200012C35.2 -0.200012 35.1 -1.22041e-05 35 -1.22041e-05C34.5 -1.22041e-05 34.1 -0.300012 34.2 0.0999878C33.9 -0.100012 32.3 -0.200012 32.6 0.0999878C31.9 -0.100012 30.2 -0.200012 29.2 0.0999878C29.2 -1.21891e-05 29.3 -1.22041e-05 29.3 -0.200012C27.8 0.0999878 27 -0.500012 25.7 0.0999878C25.4 -0.500012 24.8 0.0999878 24.4 0.199988C23.8 0.299988 22.9 0.199988 22.6 0.199988C22 0.199988 21.4 0.499988 21.3 0.299988C21.5 0.599988 20.3 -0.100012 19.9 0.499988C18 0.299988 17.1 0.999988 15.4 1.19999C15.4 1.29999 15.4 1.49999 15.3 1.49999C15.3 1.09999 14.3 1.39999 14.1 1.79999C14 1.79999 14 1.59999 13.9 1.59999C12.3 2.99999 9 3.79999 8.6 7.49999C7.7 8.99999 8.6 11.4 8.4 12.9C8.3 13.7 7.7 14.2 7.8 15.1C7.3 15.3 7.3 16 6.6 16.1C6.5 16.5 6.1 17.1 5.4 17.3C4.2 16.2 1.2 15.3 0.400001 17.3C0.700001 17.9 1.2 18.9 1.8 19.5C1.5 19.5 1.6 19.8 1.5 20.1C1.8 20.4 2.1 20 2.6 20.1C2.7 20.3 3.1 20.3 3.2 20.5C1.6 22.2 0.100001 24.8 0.300001 27.3C-0.299999 27.8 0.100001 29.4 0.600001 29.9C0.500001 29.9 0.400001 29.9 0.400001 30.1C1.3 31.9 2.4 34.1 4.6 35C4.6 35.1 4.5 35.2 4.6 35.3C5.2 35.3 5.8 35.3 6.3 35.5C5.4 35.8 4.9 36.6 6 37.3C8.3 35.3 10.5 33.2 12.6 31C12.9 31.9 14.3 32.4 13.9 33.1C12.5 33.5 12.6 35.3 11.3 35.4C11.4 36 10.5 36 10.7 36.4C9.4 36.9 9 39 8.3 40C8.5 40.8 7.5 41.7 7.7 43.3C7 44 6.8 45.4 7 46C6.9 46 6.7 46 6.7 46.1C7 46.4 6.4 47 7 47.1C6.9 47.1 6.8 47.1 6.7 47.2C6.4 47.7 6.3 49 6.2 49.8C6.1 51 6.2 52.2 6.2 53.3C6.2 54 6.4 54.9 6.3 55.5C6.2 56.2 5.7 57.2 6.3 57.9C6.3 60.7 6.9 63.6 8.1 66.1C8.9 66.2 9.1 67.2 9.8 67.2C9.6 67.8 10.5 67.9 10.9 68.3C11.2 69.4 12.7 69.8 12.7 70.8C13.4 70.7 13.3 71.6 14 71.3C13.8 71.8 14.8 71.8 14.9 72.4C15.4 72.2 15.5 72.8 16 72.7C16.1 73 16.4 73.3 16.7 73.6C17 73.9 17.7 73.9 18.3 74.3L18.2 74.5C18.6 75 19.5 74.9 20 75.3C18.8 76.8 17.4 79.6 19 81.4C22.2 81.5 22.5 78.7 24.5 77.6C25.7 79.3 28.4 78.2 30.1 79.3C31.7 79 33.4 79.4 35.5 79.2C37.5 79 38.9 77.7 40.8 77.6C41 77.5 40.7 77.4 40.9 77.3C41.3 77.5 41.4 77.1 41.9 77.3C42 76.8 42.8 76.9 43 76.5C45.3 76.1 46.7 74.2 49.5 73.5C49.7 74.3 50.6 74.7 51.2 75.1C51.6 75.3 51.7 75.9 52 76.2C52.5 76.6 53.3 76.6 53.8 77.1C54.2 76.8 54.6 77.4 54.8 77C54.7 77 54.6 77 54.6 76.9C55.6 76.9 56.3 76.3 56.4 75.5C56.4 74.7 55.5 73.7 55.2 72.6C54.9 71.5 54.3 70.9 53.5 70.8C53.7 70.3 53.8 70.5 54 70.3C54.2 70.1 54.2 69.6 54.5 69.1C54.6 68.9 54.9 68.9 55 68.7C55.1 68.6 54.9 68.4 55 68.3C55.3 67.7 56 67.5 56.5 66.9C56.6 66.8 56.4 66.6 56.5 66.5C56.7 66.1 57.4 65.7 57.5 65.6C57.5 65.5 57.4 65.3 57.4 65.3C58 64.5 59 63.8 59.2 62.9C59.2 62.9 58.9 62.6 59.1 62.5C59.8 61.1 61.3 59.4 61.1 57.2C61.4 57.2 61.5 56.6 61.2 56.5C61.8 56 61 54.9 61 53.8C61 53 61.3 52.2 61.1 51.7C60.8 50.8 61.1 49.7 60.9 48.8C60.5 46.4 60.2 44.4 59.9 42.7C59.5 42.4 59.7 42.3 59.7 41.7C59.4 41.6 59.6 41 59.3 41.1C59.5 40.9 59.3 41 59.3 40.7C56.9 38.3 55.1 35.2 52.9 32.5C52.8 32 52.6 31.7 52.2 31.5C52.5 31.5 51.7 30.6 51.4 30.4C51.4 30.4 51.5 30.4 51.3 30.2C51.1 30 50.6 29.8 50.2 29.5C50 29.3 49.9 28.9 49.7 28.8C49.6 28.7 49.3 28.8 49.1 28.7C48.2 28.1 47.6 27.1 46.6 26.9C46.5 26.9 46.5 27.1 46.4 27.1C46.5 26.5 45.7 27 45.8 26.6C45.6 26.6 45.6 26.7 45.5 26.8C45.5 26.3 44.4 26.3 44.2 26.6C44.2 26.5 44.2 26.4 44.3 26.3C43.9 26.4 43.8 26.1 43.5 26.3C43.2 25.6 42 26 41.9 25.4C39.6 25.3 36.4 24.7 34.4 24.2C34 24.4 33.9 24.3 33.5 24.4C33.7 24.2 33.5 24.3 33.4 24.1C32.6 24.3 31.6 24.3 31 24.8C30.5 23.1 28.7 21.9 27.8 20.3C28.2 20 28.7 19.8 29.2 19.5C29.2 19 29.2 19 29.1 18.6C27.6 17 25.5 17.7 23.8 18.4C23.8 18.8 23.8 18.6 23.5 18.6C23.1 19.5 23.5 20.1 23.9 20.6C23.8 20.6 23.7 20.6 23.6 20.6C23.6 21 23.8 21.1 23.9 21.4C24.7 21.3 26.1 21.2 26.9 20.8C28 22 29.2 23 29.9 24.6C29.8 24.8 29.7 24.9 29.5 25C29.5 24.9 29.6 24.9 29.6 24.7C29.1 24.8 28.9 25.1 28.5 25.2C28.5 25.2 28.4 25 28.3 25L28 25.3C28 25.3 28.2 25 28.1 25C27.5 24.7 27.5 25.6 27.1 25.8C26.9 25.9 26.3 25.5 25.9 25.6C25.9 26.1 25 25.7 25.1 26.3C24.9 26.3 25 26 24.8 26C24.8 26.2 25 26.3 24.7 26.4C23.2 25.7 22.5 27.7 21 27.8C21 28 21.1 28 21.2 28.1C20.3 28 19.3 28.6 18.9 29.3C17.3 29.6 15.4 30.9 14.6 32.1C14.4 32 14.2 32.4 14.2 32.1C14.9 31.7 13.7 31.2 13.8 30.6C13.6 30.8 13.2 30.4 13.2 30.1C14.1 28.9 15.1 28.2 16.1 27.3C16.2 27.3 16.4 27.3 16.5 27.3C17 26.6 17.8 25.7 18.8 25.7C18.9 25.3 19.4 25.2 19.5 24.6C19.4 24.5 19 24.5 18.9 24.4C18.4 21.7 16.1 20 13.9 18.7C13.4 18.7 12.9 18.6 12.8 18.2C10.9 17.6 8 17.6 5.7 18.5C5.3 19 4.6 19.9 4 19.6C6 18.7 7.3 17.2 8.8 15.8C8.7 14.2 10.4 13 9.4 11.8C9.5 11.6 9.5 10.8 9.2 10.5C9.7 9.69999 9.3 8.79999 9.6 7.99999C9.7 7.59999 10.1 7.29999 10.2 6.89999C11 4.59999 12.3 3.89999 14.1 3.19999C14.5 3.09999 15.7 2.79999 15.8 2.39999C17.4 2.39999 19.1 1.69999 20.7 1.49999C21.8 1.39999 24.9 1.49999 26.3 1.29999C29.7 0.799988 32.6 1.39999 35.6 1.09999C35.6 1.29999 35.7 1.29999 35.8 1.39999C35.8 1.29999 35.8 1.09999 35.9 1.09999C36.4 1.29999 36.8 1.39999 37.7 1.39999C38.5 1.59999 39.8 1.69999 40.5 2.09999C40.9 2.29999 41.5 2.39999 42 2.29999C42.2 2.69999 43.5 3.29999 43.8 3.49999C44.1 4.39999 44.9 5.59999 45.2 6.89999C45.4 7.79999 45.3 8.59999 45.9 9.19999C46.2 9.49999 46.7 9.69999 47.1 9.99999C47.9 10.9 49.5 11.2 50.8 11.9C49.5 12 49.1 12.3 47.9 12.5C47.3 13 46.5 13.8 45.6 14.3C45.4 15.3 44 15.8 44 16.9C42.7 17.8 41.1 20 42.3 21.8C42.3 21.6 42.6 21.8 42.8 21.7C44.5 23.8 47.6 24.5 49.3 26.6C49.2 26.9 49.4 27.8 50.1 27.6C50.1 27.4 50 27.4 50.1 27.3C51.9 28.4 53.2 30.1 55.5 30.9C56 30.6 56.3 30.1 57.3 30.2C59.2 28.9 60 26.9 61.5 24.8C61.4 24.3 61.6 24.1 61.6 23.9C62.1 20.3 61 17.5 59.1 15.4ZM26.1 19.4C25.9 19.6 26.3 19.8 26.1 20C25.4 19.9 24.6 20.9 24.3 19.8C25.1 19 27 18 28 19.2C27.4 19.4 26.8 19.8 26.1 19.4ZM19.9 80.6C19 80.6 19.2 78.8 19.6 78.7C19.5 77.5 20.6 76.7 20.9 75.9C21.4 75.9 21.4 76.4 21.9 76.4C22 76.7 21.8 76.9 21.9 77.4C22.1 77.3 21.9 76.9 22.3 77C22 76.8 22.2 76.8 22.2 76.4C22.6 76.8 23.3 76.8 23.4 77.4C21.9 78.1 21.2 79.6 19.9 80.6ZM54.6 76C53.3 76.5 53.1 75.5 52.5 74.9C51.8 74.3 50.7 73.9 50.5 73.2C50.2 73.2 49.8 73.3 49.8 72.9C49.9 73 50 73 50.2 73C51.3 72.3 51.7 71.7 52.9 70.9C53.9 72.1 54.9 74.5 54.6 76ZM14.4 34C15 32.6 16.6 32.2 17.5 31.1C19.2 30.4 20.9 29.3 22.6 28.4C23.1 28.1 23.8 28 24.2 27.9C25.7 27.5 27.2 26.6 28.6 26.3C31 25.9 33.1 25.3 35.7 25.6C37.2 25.8 38.9 26.4 40.5 26.7C40.9 26.8 41.3 26.6 41.8 26.7C42.5 26.9 43.2 27.5 44.1 27.7C45.7 28 47.5 28.3 48.1 29.5C51.4 31.5 53 35.2 55.4 38.2C58.4 40.5 59.5 45.4 59.7 50.1C59.7 51 60 51.6 60.1 52.3C60.2 53.2 59.9 53.8 60 54.5C60.2 56.4 60.3 57.7 59.6 59.1C59.1 60.1 58.1 61.1 58 62.7C57.7 63 57.4 63.4 57.3 63.9C57 64 56.8 64.2 56.6 64.4C56.3 65.7 55 66.2 54.3 67.3C53.8 68 53.7 68.9 53.1 69.5C52.2 70.5 50.9 70.8 50.2 71.9C49.7 71.7 49.5 72.3 49 72.5C48.4 72.7 47.7 72.7 47.1 73C45.9 73.6 44.9 74.8 43.9 75.2C43.7 75.3 42.9 75.3 42.8 75.7C42.6 75.8 42.4 75.6 42.1 75.8C41.9 75.9 41.8 76 41.6 76.2C38.8 76.3 37.1 78.3 33.5 78.1C33.2 78.1 32.8 77.9 32.4 77.9C31.6 77.8 30.9 78.1 30.3 78C30 78 29.7 77.8 29.4 77.7C27.8 77.4 25.6 77.8 24.7 76.3C23.3 76.2 22.3 75 20.9 74.5C20.7 74.5 20.7 74.4 20.7 74.2C17.8 73.6 15.4 71.1 13.4 70.2C13.3 70 13.1 69.9 13.1 69.6C12.3 69.3 12 68.4 11.4 67.8C10.1 66.4 8 65.5 8.1 63.3C8.1 63.2 8 63.3 8 63.4C7.4 61.6 7.5 59.6 6.9 58C7.1 56.5 7.2 54.4 7.1 52.8C7.1 52.6 6.7 52.6 7.1 52.5C7.1 52.4 7 52.3 6.9 52.3C6.9 52.2 7 52.2 7 52.3C7.3 51.5 7.1 50.7 7.1 49.3C7.1 48.9 7.5 48.4 7.6 47.6C7.6 47.3 7.4 47 7.4 46.6C7.4 45.8 8.1 44.9 7.9 44.1C7.9 43.9 8.2 43.9 8.3 43.8C8.7 41.2 9.3 38.9 11.1 37.7C11.1 37.4 11.3 37.3 11.3 37C12.5 36.2 13.1 34.7 14.4 34ZM6.5 19.9C7.8 19.4 9.6 19 10.8 19C12.1 19 14.3 19.9 15.4 20.6C16.2 21.1 16.6 21.8 17.2 22.6C17.5 23 18.3 23.6 18.1 24.4C18 24.8 17.4 25.1 16.8 25.5C16.3 25.8 16 26.3 15.6 26.6C15.3 26.9 14.8 27 14.5 27.2C13.4 28.1 12.4 29.4 11.4 30.5C10 31.9 8.4 33.3 6.9 34.7C5.6 34.6 4.3 34 3.4 33C3.2 32.7 3.1 32.2 2.8 31.9C2.4 31.4 1.8 31.1 1.6 30.7C0.600001 28.4 1.5 26.2 2 24.2C2.3 23.6 3 23.1 3.4 22.2C3.5 22.3 3.6 22.3 3.7 22.3C3.5 22 3.7 22 3.8 21.7C5 21.2 5.6 20.6 6.5 19.9ZM2.1 17.3C2.3 17.4 2.8 17.1 2.5 17.3C2.9 16.9 4.7 17.1 5.1 17.7C4.3 18.6 1.8 19.4 2.1 17.3ZM58.3 13.2C58.2 13.4 58.1 13.6 58.1 13.9C57.9 13.8 57.5 13.8 57.5 13.4C57.9 13.5 57.8 13.1 58.3 13.2ZM60.3 23.5C60.1 24.4 59.3 25.5 59.1 26C59.1 26.1 59.3 26.1 59.3 26.1C58.9 26.8 58.2 27.2 57.8 28C57 28.5 56.4 28.6 56.2 29.8C54.2 30.1 52.9 28.1 51.3 27C50.9 26.7 50.6 26.8 50.4 26.2C50.6 26.1 50.6 25.8 51 25.9C51 25.6 50.7 25.6 50.6 25.4C50.3 25.5 50.2 25.7 49.9 25.8C49.5 25.7 49.4 25.3 49 25.1C49 25 49.5 25.1 49.6 25.2C48.9 24.2 47.4 24 46.4 23.4C46.9 23.1 46.2 23.2 45.7 22.8C45.3 22.5 45 21.7 43.9 21.9C43.5 21.4 42.7 21.2 42.4 20.5C43.4 18.4 45.2 16.7 46.5 14.5C48 13.7 49.6 12.2 51.6 12.8C51.7 12.8 51.6 12.7 51.6 12.5C56.5 14.4 62 16.9 60.3 23.5ZM9.6 53C10.2 58.1 12.1 62.7 15.1 65.7C15.8 67.2 17.7 68.3 18.7 69.8C19 70 19.4 70 19.4 70.5C21.2 71.6 22.7 73.2 25 73.8C26 73.7 26.5 74.6 27.8 74.4C28 74.5 28.1 74.7 28.3 74.7C30.4 74.5 32.6 75.6 34.4 75.5C35.4 75.5 36.2 75.2 36.9 75C37.9 74.7 39.2 74.8 40.2 74.4C40.3 74.4 40.5 74.1 40.5 74.1C42.7 73.1 45.3 72.7 46.9 71C47 71.1 47.3 70.9 47.5 70.9C48.8 69.5 50 68.4 51.6 66.9C51.7 65.9 52.9 65.5 53.1 64.9C55.1 63.2 56.3 60.2 57.2 57.5C57.3 57.2 56.9 57.4 57 57.1C57.7 56.5 57.5 55.3 57.6 54.2C57.7 52.7 58.3 51.6 57.6 50.5C57.3 47.6 57 44.5 55.2 42.6C54.5 41.1 53.6 40.1 53.1 38.8C53 38.8 52.8 38.8 52.8 38.7C50.6 34.8 46.4 32.9 42.9 29.9C41.3 29.4 38.9 28.4 37.5 28.9C36.3 28.5 34.8 28.9 33.5 28.8C33.6 28.8 33.6 28.7 33.4 28.7C32.8 28.8 32.6 28.6 31.9 28.5C30.7 28.4 29.6 29 28.7 29C27.8 29.7 26.9 29.8 25.7 30.3C25.7 30.5 25.7 30.7 25.5 30.7C25 30.7 25.1 30.7 24.7 30.8C23.6 31.3 22.5 31.5 21.6 32C21.1 32.2 20.6 32.3 20.2 32.5C19.2 33.2 18.3 34.2 17.6 34.8C16.3 35.1 15.5 36.8 14.3 37.4C12.6 40 11.3 42.5 10.2 45.3C9.6 47.4 9.8 51.2 9.6 53ZM13.7 40.5C14 40.6 13.9 40.2 14.2 40.3C14.6 39.4 14.9 38.6 15.4 38C15.5 37.9 15.8 37.9 15.9 37.8C16.1 37.5 16.1 37.2 16.5 36.9C17.3 36.3 18.3 35.7 19 35.1C19.1 35 19 34.8 19.1 34.7C19.5 34.3 20.4 34.1 20.4 33.6C20.5 33.6 20.5 33.7 20.4 33.7C20.9 33.6 21.3 32.9 22.2 32.7C22 32.9 21.9 33 22 33C23.4 32.9 24.9 31.5 26.6 31C27.8 30.6 28.9 30.7 29.9 30.1C29.9 29.5 29.4 30.5 29.4 29.9C30.9 29.4 32.1 29.7 34.3 29.7C35.9 29.7 38 30.1 38.6 29.8C38.9 29.9 39.4 29.9 39.6 30.2C39.7 29.9 42.3 30.6 43.1 31.1C43.7 31.4 44.2 32 44.9 32.5C47.5 34.2 50.4 36.3 52.1 38.8C54.1 41.8 56.6 45 56.9 49.4C55.9 48.9 54.5 49.4 53.8 49.8C53.9 50.1 53.9 50.4 54 50.7C55.2 51.1 56.1 51 57.1 50.7C57.2 53.2 57.3 55.3 56.4 57C56.1 61.2 53.1 63.5 51.2 66.4C47.9 70.1 43.8 72.8 38 74C37.1 73.2 38.7 71 36.9 70.9C36.6 71.8 36.3 73.2 37 74C36.4 74.6 34.8 74.4 34 74.8C32.6 74.3 31.3 74.4 29.7 73.9C27.2 73.9 24.2 72.9 21.9 71.7C21.6 71.1 20.9 70.8 20.3 70.4C19.9 69.7 19 69.5 18.8 68.6C14.6 65.1 11.4 60.5 10.7 54.1C11.5 54.2 12.8 54.2 13.7 54.3C14.4 53 13 52.8 11.9 52.5C11.5 52.6 11.4 53.2 10.7 52.9C10.2 48.6 11.5 44 13.7 40.5ZM19.8 59.8C21 59.8 21.9 59.8 22.7 59.5C25.3 58.7 28 57.9 30 56.5C31.3 56 32.5 55.5 33.1 54.4C32.9 54.1 32.6 54.1 32.5 53.7C33.6 54 34.2 53.4 34.7 53.3C34.6 53 35.5 52.7 35.6 52.4C35.9 51.3 34.9 50.8 34.4 49.9C34.8 45.4 34 40.4 34 37.2C34 35.8 33.6 34.4 33.5 33.5C33.2 33.3 32.9 33.2 32.5 33.1C32.6 33.7 32.3 33.3 32.1 33.5C32 34.5 31.4 35.7 31.2 36.8C31.2 37 31.3 37.2 31.3 37.5C31.3 37.8 31 38.2 30.9 38.6C30.6 40.3 30.5 42.5 30.6 44C30.6 44.4 30.8 44.9 31 45.2C30.9 45.2 30.7 45.2 30.7 45.3C30.8 46.9 30.9 48.3 31.6 50C31.1 50.3 31.4 51 31.1 51.5C31.1 51.5 30.6 51.7 30.5 51.9C30.3 52.3 30.2 52.4 30.2 52.6C30.5 52.5 29.9 52.8 30 53.1C30.3 53.6 30.5 54.2 31.5 54.5C31.8 54.3 32 54.2 32.3 54.1C31.2 54.9 30.3 55.6 29.1 56.1C29.1 56.1 29.1 55.9 29.2 55.9C28.2 56.2 27.4 57.2 26.3 57.1C26.3 57 26.1 57 26 57.2C24.7 57.4 22.5 58.8 21.2 58.5C23.2 57.4 25.1 55.7 27.1 55.3C27.6 54.6 29.5 54.5 30.6 54C30.8 53.8 29.8 53.5 30.3 53.3C28.2 52.9 26.3 54.3 24.8 55C24.3 55.2 23.8 55.2 23.4 55.5C21.8 56.5 20.3 57.8 18.8 58.6C18.8 59 18.2 59.1 18.4 59.4C18.2 59.2 18.1 59.4 17.9 59.5C17.8 60.1 18.2 60.1 18.3 60.5C19.2 60.5 19.7 60.1 19.8 59.8ZM31.3 53.5C30.9 53.4 30.9 52.9 30.5 52.7C30.8 52.3 31.1 51.7 31.2 51.3C31.4 51.8 31.4 52.4 31.7 52.9C31.6 53.2 31.3 53.3 31.3 53.5ZM31.8 45.7C31.6 42.5 31.9 39.3 32.7 36C32.9 36 33.2 36.8 32.8 36.8C33.4 38.5 33.2 40.5 33.2 42.6C33.2 43.6 33.4 44.4 33.4 45.2C33.3 46.9 33.2 48.2 33.2 49.7C33.1 49.7 32.9 49.7 32.9 49.8C32.1 48.7 31.9 47.1 31.8 45.7ZM44 35.9C44.2 36.9 45.8 36.8 45.8 36.1C46 36.3 45.7 36.4 46 36.5C46.3 36 45.3 36 45.7 35.1C45.4 35.1 45.5 34.8 45.4 34.6C44 34.2 42.8 35.4 43.6 36.4C43.6 36.1 43.9 36.1 44 35.9ZM51.4 59.4C51.5 59.3 51.6 59.1 51.8 59.1C51.7 59.4 52.1 59.3 52.1 59.5C52 59.5 51.8 59.8 52 59.8C52.3 59.3 52.5 59.8 53.1 59.5C53.1 59.6 53.2 59.6 53.2 59.5C53.4 59.1 53.4 57.7 52.3 57.8C52.5 57.8 52.6 57.7 52.6 57.6C52.5 57.6 52.5 57.5 52.5 57.4C52.2 57.4 52.1 58 52.1 57.4C51.8 57.8 50.6 58.9 51.4 59.4ZM45.4 66.3C45.1 66.5 44.9 66.1 44.3 66.2C43.4 67 43.9 68.3 45.1 68.1C45.8 68 46 66.7 46.8 66.9C46.9 66.1 45.4 65.8 45.4 66.3ZM46.3 66.5C46.3 67 45.5 66.4 45.5 66.7C45.2 66.1 46.4 66.3 46.3 66.5ZM4.3 27.7C3.7 28.5 5 29.2 5.6 29.6C6.1 28.8 7.4 27.9 7.3 27.1C7.7 27 8 26.5 8.1 26C7.9 26 7.8 25.8 7.6 25.8C7.2 26.1 6.9 26.5 6.6 26.9C6.1 27 6 28 5.5 27.9C6.4 26.4 6.8 25.5 7.6 23.9C6.9 23.8 6.4 24.4 5.9 24.9C6.4 24.4 7.4 23 6.2 23.1C5.2 23.3 4.2 25.9 3.6 26.9C4.1 27.2 3.9 27.5 4.3 27.7ZM23.5 37.3C23.5 37.2 23.5 37 23.6 37C24.3 38 26.1 37.4 26 36.3C25.7 36.1 25.6 35.6 25.3 35.3C23.9 34.4 21.9 36.2 23.5 37.3ZM49 44.1C49.8 43.9 50.3 44.3 51 44C50.8 43.1 51 42.8 50.7 41.9C49.5 41.2 48.4 41.8 48.6 42.9C48.6 43.3 49.2 43.5 49 44.1ZM17.3 63.9C17.2 63.9 17.1 63.9 17.1 64C17.5 64 17.9 63.9 18.2 63.8C18.4 62.6 17.6 61.7 16.5 61.5C16 62.2 16.5 63.8 17.3 63.9Z" fill="#1E4295"/>
</svg>
