<svg width="15" height="10" viewBox="0 0 15 10" fill="none" xmlns="http://www.w3.org/2000/svg">
<path fill-rule="evenodd" clip-rule="evenodd" d="M14.155 1.16655L7.40925 5.16066C7.22871 5.26861 7.00304 5.26861 6.82251 5.16066L0.0767396 1.16655C0.028134 1.13521 0.000359338 1.08297 0.00383117 1.02726C0.0524368 0.452689 0.535021 0 1.11829 0H13.1135C13.6967 0 14.1793 0.452689 14.2279 1.02726C14.2314 1.08297 14.2036 1.13869 14.155 1.16655ZM7.11725 6.46302C7.20752 6.46302 7.29779 6.43864 7.38111 6.38989L14.0088 2.46194C14.106 2.40623 14.231 2.47587 14.231 2.59079V8.55236C14.231 9.17219 13.7311 9.67363 13.1131 9.67363H1.11793C0.499944 9.67363 0 9.17219 0 8.55236V2.59079C0 2.47935 0.124986 2.40623 0.222197 2.46543L6.85339 6.38989C6.93325 6.43864 7.02699 6.46302 7.11725 6.46302Z" fill="black"/>
</svg>
