<svg width="10" height="16" viewBox="0 0 10 16" fill="none" xmlns="http://www.w3.org/2000/svg">
<path d="M9.90135 14.1624L8.80191 11.7936C8.63771 11.4383 8.28075 11.2086 7.89166 11.2086C7.79529 11.2086 7.69891 11.223 7.6061 11.2517L6.29962 11.5962C6.11044 11.4347 5.51074 10.7815 4.4363 8.47017C3.35471 6.14805 3.24762 5.27591 3.24762 5.03185L4.35063 4.24585C4.76113 3.96949 4.91462 3.42396 4.70758 2.97533L3.60815 0.60655C3.43681 0.236878 3.062 0 2.65864 0C2.45874 0 2.26241 0.0574249 2.09107 0.168686L1.43426 0.595783C0.84885 0.958277 0.438347 1.51099 0.209892 2.23239C0.00999488 2.87124 -0.0471187 3.64648 0.0385517 4.53656C0.181336 6.0332 0.745332 7.9031 1.62345 9.79453C2.38378 11.4311 3.30473 12.917 4.21855 13.9722C5.38581 15.3181 6.53165 16 7.62751 16C7.93093 16 8.22721 15.9462 8.51635 15.8421L9.26239 15.6124C9.55153 15.5227 9.78712 15.3109 9.90849 15.0345C10.0334 14.7546 10.0299 14.4388 9.90135 14.1624Z" fill="black"/>
</svg>
