<svg width="18" height="12" viewBox="0 0 18 12" fill="none" xmlns="http://www.w3.org/2000/svg">
<path d="M17.6242 1.85293C17.5199 1.49635 17.3209 1.17147 17.0465 0.909689C16.772 0.64791 16.4314 0.458089 16.0576 0.358571C14.6546 1.02807e-05 9.00801 1.01525e-05 9.00801 1.01525e-05C9.00801 1.01525e-05 3.37567 -0.00714662 1.95839 0.358571C1.58457 0.458089 1.24399 0.64791 0.969559 0.909689C0.69513 1.17147 0.496134 1.49635 0.391808 1.85293C0.125849 3.22313 -0.00526955 4.61404 0.000162055 6.00752C-0.00424273 7.39574 0.126872 8.78133 0.391808 10.1464C0.496134 10.5029 0.69513 10.8278 0.969559 11.0896C1.24399 11.3514 1.58457 11.5412 1.95839 11.6407C3.35991 12 9.00801 12 9.00801 12C9.00801 12 14.6396 12 16.0576 11.6407C16.4314 11.5412 16.772 11.3514 17.0465 11.0896C17.3209 10.8278 17.5199 10.5029 17.6242 10.1464C17.8836 8.78084 18.0092 7.39525 17.9994 6.00752C18.0102 4.61454 17.8846 3.22363 17.6242 1.85293ZM7.20584 8.57757V3.4296L11.9056 6.00752L7.20584 8.57757Z" fill="black"/>
</svg>
