<svg width="13" height="13" viewBox="0 0 13 13" fill="none" xmlns="http://www.w3.org/2000/svg">
<path fill-rule="evenodd" clip-rule="evenodd" d="M0 3.48649C0 1.56095 1.56095 0 3.48649 0H9.51351C11.439 0 13 1.56095 13 3.48649V9.51351C13 11.439 11.439 13 9.51351 13H3.48649C1.56095 13 0 11.439 0 9.51351V3.48649ZM11.375 2.4375C11.375 2.88623 11.0112 3.25 10.5625 3.25C10.1138 3.25 9.75 2.88623 9.75 2.4375C9.75 1.98877 10.1138 1.625 10.5625 1.625C11.0112 1.625 11.375 1.98877 11.375 2.4375ZM8.66667 6.5C8.66667 7.69662 7.69662 8.66667 6.5 8.66667C5.30338 8.66667 4.33333 7.69662 4.33333 6.5C4.33333 5.30338 5.30338 4.33333 6.5 4.33333C7.69662 4.33333 8.66667 5.30338 8.66667 6.5ZM9.75 6.5C9.75 8.29493 8.29493 9.75 6.5 9.75C4.70507 9.75 3.25 8.29493 3.25 6.5C3.25 4.70507 4.70507 3.25 6.5 3.25C8.29493 3.25 9.75 4.70507 9.75 6.5Z" fill="black"/>
</svg>
