<svg width="18" height="10" viewBox="0 0 18 10" fill="none" xmlns="http://www.w3.org/2000/svg">
<path d="M8.77518 9.95233H9.85293C9.85293 9.95233 10.1777 9.91795 10.3434 9.74459C10.5009 9.58294 10.5009 9.28377 10.5009 9.28377C10.5009 9.28377 10.4777 7.87423 11.1527 7.66723C11.8179 7.46169 12.6617 9.02775 13.561 9.62975C14.248 10.0898 14.7647 9.99109 14.7647 9.99109L17.173 9.95891C17.173 9.95891 18.4345 9.88211 17.8382 8.91584C17.7925 8.83904 17.5 8.20266 16.06 6.89699C14.551 5.53574 14.7535 5.75518 16.567 3.39547C17.6687 1.95814 18.1195 1.07965 17.9732 0.706602C17.8487 0.355498 17.0282 0.442543 17.0282 0.442543L14.3267 0.465218C14.3267 0.465218 14.1242 0.442542 13.978 0.53105C13.8317 0.618094 13.7425 0.817053 13.7425 0.817053C13.7425 0.817053 13.3135 1.93546 12.7404 2.87979C11.5232 4.87596 11.0394 4.98567 10.8482 4.85401C10.3952 4.56801 10.5114 3.6983 10.5114 3.07509C10.5114 1.14329 10.8144 0.332091 9.92568 0.123624C9.63318 0.0570604 9.41493 0.013904 8.66192 0.00220054C7.69442 -0.00803998 6.87841 0.0095151 6.41566 0.229686C6.11191 0.378174 5.87566 0.706602 6.01141 0.723425C6.19141 0.745369 6.59566 0.830219 6.80941 1.11622C7.09067 1.48634 7.07867 2.3129 7.07867 2.3129C7.07867 2.3129 7.23692 4.59215 6.70816 4.87522C6.33691 5.06687 5.84191 4.67041 4.7619 2.8593C4.21065 1.93766 3.79365 0.906292 3.79365 0.906292C3.79365 0.906292 3.7149 0.719037 3.5694 0.609317C3.39914 0.488625 3.15164 0.444737 3.15164 0.444737L0.575379 0.466681C0.575379 0.466681 0.192877 0.478385 0.0586258 0.642233C-0.0658749 0.784869 0.0466257 1.09208 0.0466257 1.09208C0.0466257 1.09208 2.06114 5.69081 4.34565 8.00663C6.43816 10.1293 8.81268 9.99256 8.81268 9.99256L8.77518 9.95233Z" fill="#45668E"/>
</svg>
