<svg width="14" height="16" viewBox="0 0 14 16" fill="none" xmlns="http://www.w3.org/2000/svg">
<path d="M0 11.7733V1.27377C0 0.570434 0.569721 0.00170898 1.27053 0.00170898H8.26682L13.5086 5.24978V13.9085C13.5086 15.0131 12.6131 15.9085 11.5086 15.9085H2C0.895431 15.9085 0 15.0131 0 13.9085V11.7733Z" fill="#365FBD"/>
<path d="M4.84534 12L3.66667 7H5.14194L5.43855 8.85494C5.53017 9.43337 5.62179 10.0936 5.69789 10.613H5.71341C5.79727 10.0497 5.90287 9.44852 6.01779 8.83222L6.34545 7H7.81451L8.13441 8.92157C8.22603 9.5 8.29436 10.0118 8.36269 10.5751H8.37822C8.45431 10.0118 8.54593 9.4258 8.63755 8.83222L8.94193 7H10.3333L9.07082 12H7.56915L7.22751 10.0421C7.15142 9.60448 7.08308 9.13659 7.01476 8.54301H6.99923C6.91537 9.12902 6.84704 9.60448 6.75542 10.0421L6.36719 12H4.84534Z" fill="white"/>
<path d="M8.26446 0H8.26614L13.5079 5.24807H9.58708C9.23584 5.24807 8.89973 5.10841 8.651 4.85939C8.40227 4.61036 8.26278 4.27384 8.26278 3.92217V0H8.26446Z" fill="#1E4295"/>
</svg>
