<svg width="97" height="96" viewBox="0 0 97 96" fill="none" xmlns="http://www.w3.org/2000/svg">
<circle cx="48.8" cy="48" r="45.72" stroke="#EDC863" stroke-width="2"/>
<path d="M61.3887 94.3198C54.7631 96.1205 47.8283 96.4788 41.0524 95.3706C34.2765 94.2624 27.8172 91.7134 22.1105 87.8957C16.4038 84.078 11.5825 79.0805 7.9721 73.2404C4.3617 67.4004 2.04619 60.8537 1.18189 54.0424C0.317578 47.2311 0.924584 40.3136 2.96193 33.7569C4.99927 27.2002 8.41954 21.1568 12.9919 16.0348C17.5642 10.9128 23.1821 6.83128 29.4665 4.0658C35.7509 1.30032 42.5554 -0.0847733 49.4208 0.00401352L49.3673 4.13887C43.0934 4.05773 36.8751 5.3235 31.1321 7.85074C25.3891 10.378 20.2551 14.1079 16.0767 18.7886C11.8983 23.4694 8.77271 28.9921 6.91089 34.9839C5.04906 40.9758 4.49435 47.2973 5.28419 53.5218C6.07404 59.7464 8.19006 65.729 11.4894 71.0659C14.7888 76.4029 19.1947 80.9699 24.4098 84.4587C29.6248 87.9475 35.5277 90.2769 41.7199 91.2896C47.912 92.3024 54.2494 91.9749 60.3042 90.3294L61.3887 94.3198Z" fill="#D52E1E"/>
</svg>
