<svg width="38" height="22" viewBox="0 0 38 22" fill="none" xmlns="http://www.w3.org/2000/svg">
<path d="M18.8846 21.3424H21.0841C21.0841 21.3424 21.7469 21.2713 22.0852 20.9131C22.4066 20.5791 22.4066 19.9609 22.4066 19.9609C22.4066 19.9609 22.3592 17.0483 23.7368 16.6205C25.0945 16.1958 26.8165 19.4319 28.6517 20.6758C30.0538 21.6265 31.1084 21.4225 31.1084 21.4225L36.0234 21.356C36.0234 21.356 38.5979 21.1973 37.3811 19.2006C37.2877 19.0419 36.6907 17.7269 33.7519 15.0289C30.6722 12.216 31.0855 12.6695 34.7866 7.79343C37.0351 4.82336 37.9551 3.00806 37.6566 2.23721C37.4025 1.51169 35.728 1.69156 35.728 1.69156L30.2145 1.73842C30.2145 1.73842 29.8012 1.69156 29.5028 1.87445C29.2043 2.05432 29.0221 2.46544 29.0221 2.46544C29.0221 2.46544 28.1466 4.7765 26.9772 6.72783C24.4929 10.8527 23.5056 11.0794 23.1153 10.8073C22.1908 10.2163 22.4281 8.41918 22.4281 7.1314C22.4281 3.13956 23.0464 1.46333 21.2326 1.03255C20.6356 0.895008 20.1902 0.805831 18.6534 0.781647C16.6789 0.760486 15.0135 0.796761 14.0691 1.25172C13.4492 1.55855 12.967 2.23721 13.2441 2.27197C13.6114 2.31732 14.4365 2.49265 14.8727 3.08364C15.4467 3.84845 15.4222 5.55643 15.4222 5.55643C15.4222 5.55643 15.7452 10.2662 14.6661 10.8512C13.9084 11.2472 12.8982 10.4279 10.694 6.68551C9.56897 4.78104 8.71792 2.64984 8.71792 2.64984C8.71792 2.64984 8.5572 2.2629 8.26026 2.03618C7.9128 1.78678 7.40768 1.69609 7.40768 1.69609L2.14986 1.74144C2.14986 1.74144 1.36922 1.76562 1.09523 2.1042C0.841144 2.39894 1.07074 3.03376 1.07074 3.03376C1.07074 3.03376 5.1821 12.5365 9.84449 17.3218C14.115 21.7082 18.9611 21.4255 18.9611 21.4255L18.8846 21.3424Z" fill="white"/>
</svg>
