<svg width="97" height="68" viewBox="0 0 97 68" fill="none" xmlns="http://www.w3.org/2000/svg">
<path d="M94.9749 10.5C94.4127 8.47931 93.3403 6.63832 91.8615 5.1549C90.3826 3.67149 88.5472 2.59584 86.5328 2.0319C78.9721 5.82573e-05 48.5432 5.75308e-05 48.5432 5.75308e-05C48.5432 5.75308e-05 18.1911 -0.0404975 10.5535 2.0319C8.53908 2.59584 6.70372 3.67149 5.22485 5.1549C3.74598 6.63832 2.67361 8.47931 2.11141 10.5C0.678187 18.2644 -0.028397 26.1462 0.000873294 34.0426C-0.0228636 41.9092 0.683698 49.7609 2.11141 57.496C2.67361 59.5167 3.74598 61.3577 5.22485 62.8411C6.70372 64.3245 8.53908 65.4002 10.5535 65.9641C18.1062 68 48.5432 68 48.5432 68C48.5432 68 78.8912 68 86.5328 65.9641C88.5472 65.4002 90.3826 64.3245 91.8615 62.8411C93.3403 61.3577 94.4127 59.5167 94.9749 57.496C96.3728 49.7581 97.0496 41.9064 96.9965 34.0426C97.0551 26.149 96.3783 18.2672 94.9749 10.5ZM38.8315 48.6062V19.4344L64.1579 34.0426L38.8315 48.6062Z" fill="#D52E1E"/>
</svg>
