<svg width="32" height="23" viewBox="0 0 32 23" fill="none" xmlns="http://www.w3.org/2000/svg">
<path d="M30.9498 4.20706C30.7666 3.56129 30.4172 2.97294 29.9352 2.49886C29.4533 2.02479 28.8552 1.68103 28.1988 1.5008C25.7349 0.851459 15.8189 0.851459 15.8189 0.851459C15.8189 0.851459 5.928 0.838498 3.43912 1.5008C2.78266 1.68103 2.18457 2.02479 1.70264 2.49886C1.22072 2.97294 0.871261 3.56129 0.688052 4.20706C0.221004 6.68845 -0.00925385 9.20736 0.000284584 11.7309C-0.00745066 14.2449 0.222799 16.7542 0.688052 19.2263C0.871261 19.872 1.22072 20.4604 1.70264 20.9344C2.18457 21.4085 2.78266 21.7523 3.43912 21.9325C5.90033 22.5831 15.8189 22.5831 15.8189 22.5831C15.8189 22.5831 25.7086 22.5831 28.1988 21.9325C28.8552 21.7523 29.4533 21.4085 29.9352 20.9344C30.4172 20.4604 30.7666 19.872 30.9498 19.2263C31.4054 16.7533 31.6259 14.2441 31.6086 11.7309C31.6277 9.20825 31.4072 6.68935 30.9498 4.20706ZM12.6542 16.3852V7.06236L20.9074 11.7309L12.6542 16.3852Z" fill="white"/>
</svg>
